<?xml version="1.0" encoding="UTF-8" standalone="no"?>
<svg
   xmlns:dc="http://purl.org/dc/elements/1.1/"
   xmlns:cc="http://creativecommons.org/ns#"
   xmlns:rdf="http://www.w3.org/1999/02/22-rdf-syntax-ns#"
   xmlns:svg="http://www.w3.org/2000/svg"
   xmlns="http://www.w3.org/2000/svg"
   viewBox="0 0 5410.6304 2628.1384"
   height="2628.1384"
   width="5410.6304"
   xml:space="preserve"
   id="svg2"
   version="1.1"><metadata
     id="metadata8"><rdf:RDF><cc:Work
         rdf:about=""><dc:format>image/svg+xml</dc:format><dc:type
           rdf:resource="http://purl.org/dc/dcmitype/StillImage" /></cc:Work></rdf:RDF></metadata><defs
     id="defs6" /><g
     transform="matrix(1.3333333,0,0,1.3333333,0,3.770346e-5)"
     id="g10"><g
       id="g12"><path
         id="path14"
         style="fill:#ffffff;fill-opacity:1;fill-rule:nonzero;stroke:none"
         d="M 0,0 H 4057.973 V 1971.105 H 0 Z" /><g
         id="g16"><path
           id="path18"
           style="fill:none;stroke:#e03131;stroke-width:5.625;stroke-linecap:round;stroke-linejoin:miter;stroke-miterlimit:4;stroke-dasharray:17.999999, 22.499998;stroke-dashoffset:0;stroke-opacity:0.1"
           d="m 1541.617,218.727 c 694.957,0 1389.891,0 2280.442,0 m 0,0 c 48.015,0 72,24.007 72,72 m 0,0 c 0,319.339 0,638.683 0,872.886 m 0,0 c 0,47.992 -23.985,72 -72,72 m 0,0 c -496.821,0 -993.668,0 -2280.442,0 m 0,0 c -47.992,0 -72,-24.008 -72,-72 m 0,0 c 0,-286.043 0,-572.109 0,-872.886 m 0,0 c 0,-47.993 24.008,-72 72,-72" /></g><g
         id="g20"><path
           id="path22"
           style="fill:none;stroke:#1e1e1e;stroke-width:4.5;stroke-linecap:round;stroke-linejoin:miter;stroke-miterlimit:4;stroke-dasharray:none;stroke-opacity:1"
           d="m 1357.609,1310.93 c -1.351,-183.688 -6.707,-918.45 -8.054,-1102.137 m 8.054,1102.137 c -1.351,-183.688 -6.707,-918.45 -8.054,-1102.137" /></g><g
         id="g24"><path
           id="path26"
           style="fill:none;stroke:#1e1e1e;stroke-width:4.5;stroke-linecap:round;stroke-linejoin:miter;stroke-miterlimit:4;stroke-dasharray:none;stroke-opacity:1"
           d="m 1369.172,261.508 c -6.906,-18.563 -13.813,-37.125 -19.617,-52.715 m 19.617,52.715 c -4.567,-12.305 -9.156,-24.59 -19.617,-52.715" /></g><g
         id="g28"><path
           id="path30"
           style="fill:none;stroke:#1e1e1e;stroke-width:4.5;stroke-linecap:round;stroke-linejoin:miter;stroke-miterlimit:4;stroke-dasharray:none;stroke-opacity:1"
           d="m 1330.699,261.777 c 6.637,-18.652 13.274,-37.324 18.856,-52.984 m -18.856,52.984 c 4.387,-12.351 8.797,-24.726 18.856,-52.984" /></g><g
         id="g32"><path
           id="path34"
           style="fill:none;stroke:#1e1e1e;stroke-width:4.5;stroke-linecap:round;stroke-linejoin:miter;stroke-miterlimit:4;stroke-dasharray:none;stroke-opacity:1"
           d="m 1300.285,747.203 c 18,0.024 90,0.156 108,0.18 m -108,-0.18 c 18,0.024 90,0.156 108,0.18" /></g><text
         id="text38"
         style="font-variant:normal;font-weight:bold;font-size:97.93652344px;font-family:Nunito;-inkscape-font-specification:Nunito-Bold;writing-mode:lr-tb;fill:#1971c2;fill-opacity:1;fill-rule:nonzero;stroke:none"
         transform="translate(273.60547,760.14208)"><tspan
           id="tspan36"
           y="0"
           x="0 74.627632 99.60144 131.03906 164.72923 221.43448 269.22751 294.20132 350.61276">Diffusion</tspan></text>
<text
         id="text42"
         style="font-variant:normal;font-weight:bold;font-size:97.93652344px;font-family:Nunito;-inkscape-font-specification:Nunito-Bold;writing-mode:lr-tb;fill:#1971c2;fill-opacity:1;fill-rule:nonzero;stroke:none"
         transform="translate(708.05189,760.14208)"><tspan
           id="tspan40"
           y="0"
           x="0 52.493977 90.395409 143.96669 201.25955 249.05258 281.46957 337.88101 376.27213 462.16245 515.24402 553.14551">Transformers</tspan></text>
<g
         id="g44"><path
           id="path46"
           style="fill:none;stroke:#1e1e1e;stroke-width:4.5;stroke-linecap:round;stroke-linejoin:miter;stroke-miterlimit:4;stroke-dasharray:none;stroke-opacity:1"
           d="m 1312.531,369.691 c 15.614,-0.382 78.028,-1.867 93.621,-2.226 m -93.621,2.226 c 15.614,-0.382 78.028,-1.867 93.621,-2.226" /></g><g
         id="g48"><path
           id="path50"
           style="fill:none;stroke:#1e1e1e;stroke-width:4.5;stroke-linecap:round;stroke-linejoin:miter;stroke-miterlimit:4;stroke-dasharray:none;stroke-opacity:1"
           d="m 2072.012,1324.594 c -0.043,-11.949 -0.18,-59.782 -0.203,-71.754 m 0.203,71.754 c -0.043,-11.949 -0.18,-59.782 -0.203,-71.754" /></g><g
         id="g52"><path
           id="path54"
           style="fill:none;stroke:#1e1e1e;stroke-width:4.5;stroke-linecap:round;stroke-linejoin:miter;stroke-miterlimit:4;stroke-dasharray:none;stroke-opacity:1"
           d="m 2449.648,1324.594 c -0.043,-11.949 -0.179,-59.782 -0.203,-71.754 m 0.203,71.754 c -0.043,-11.949 -0.179,-59.782 -0.203,-71.754" /></g><text
         id="text58"
         style="font-variant:normal;font-weight:bold;font-size:78.20507812px;font-family:Nunito;-inkscape-font-specification:Nunito-Bold;writing-mode:lr-tb;fill:#1e1e1e;fill-opacity:1;fill-rule:nonzero;stroke:none"
         transform="rotate(22.147147,-2528.1797,5363.4902)"><tspan
           id="tspan56"
           y="0"
           x="0 41.917923 84.070457 126.77043">Text</tspan></text>
<text
         id="text62"
         style="font-variant:normal;font-weight:bold;font-size:78.20507812px;font-family:Nunito;-inkscape-font-specification:Nunito-Bold;writing-mode:lr-tb;fill:#1e1e1e;fill-opacity:1;fill-rule:nonzero;stroke:none"
         transform="rotate(22.147147,-2616.6688,5815.6264)"><tspan
           id="tspan60"
           y="0"
           x="0 27.997417 70.775597 116.52557">(and</tspan></text>
<text
         id="text66"
         style="font-variant:normal;font-weight:bold;font-size:78.20507812px;font-family:Nunito;-inkscape-font-specification:Nunito-Bold;writing-mode:lr-tb;fill:#1e1e1e;fill-opacity:1;fill-rule:nonzero;stroke:none"
         transform="rotate(22.147147,-2708.9899,6287.3425)"><tspan
           id="tspan64"
           y="0"
           x="0 19.942295 88.528152 131.30632 178.54219 220.14729">image)</tspan></text>
<text
         id="text70"
         style="font-variant:normal;font-weight:bold;font-size:78.20507812px;font-family:Nunito;-inkscape-font-specification:Nunito-Bold;writing-mode:lr-tb;fill:#1e1e1e;fill-opacity:1;fill-rule:nonzero;stroke:none"
         transform="rotate(22.147147,-2843.659,6975.4366)"><tspan
           id="tspan68"
           y="0"
           x="0 28.623058">to</tspan></text>
<text
         id="text74"
         style="font-variant:normal;font-weight:bold;font-size:78.20507812px;font-family:Nunito;-inkscape-font-specification:Nunito-Bold;writing-mode:lr-tb;fill:#1e1e1e;fill-opacity:1;fill-rule:nonzero;stroke:none"
         transform="rotate(22.147147,-2891.0904,7217.788)"><tspan
           id="tspan72"
           y="0"
           x="0 19.942295 88.528152 131.30632 178.54219">image</tspan></text>
<text
         id="text78"
         style="font-variant:normal;font-weight:bold;font-size:87.6953125px;font-family:Nunito;-inkscape-font-specification:Nunito-Bold;writing-mode:lr-tb;fill:#1e1e1e;fill-opacity:1;fill-rule:nonzero;stroke:none"
         transform="rotate(21.171759,-2520.6184,6681.5544)"><tspan
           id="tspan76"
           y="0"
           x="0 47.004688 94.272461 142.1541">Text</tspan></text>
<text
         id="text82"
         style="font-variant:normal;font-weight:bold;font-size:87.6953125px;font-family:Nunito;-inkscape-font-specification:Nunito-Bold;writing-mode:lr-tb;fill:#1e1e1e;fill-opacity:1;fill-rule:nonzero;stroke:none"
         transform="rotate(21.171759,-2619.8456,7212.4941)"><tspan
           id="tspan80"
           y="0"
           x="0 32.096485">to</tspan></text>
<text
         id="text86"
         style="font-variant:normal;font-weight:bold;font-size:87.6953125px;font-family:Nunito;-inkscape-font-specification:Nunito-Bold;writing-mode:lr-tb;fill:#1e1e1e;fill-opacity:1;fill-rule:nonzero;stroke:none"
         transform="rotate(21.171759,-2673.0328,7497.0853)"><tspan
           id="tspan84"
           y="0"
           x="0 46.215431 68.577736 121.19492 168.72578">video</tspan></text>
<g
         id="g88"><path
           id="path90"
           style="fill:none;stroke:#1e1e1e;stroke-width:4.5;stroke-linecap:round;stroke-linejoin:miter;stroke-miterlimit:4;stroke-dasharray:none;stroke-opacity:1"
           d="m 2925.387,1319.395 c -0.043,-11.903 -0.18,-59.555 -0.203,-71.481 m 0.203,71.481 c -0.043,-11.903 -0.18,-59.555 -0.203,-71.481" /></g><text
         id="text94"
         style="font-variant:normal;font-weight:bold;font-size:88.87695312px;font-family:Nunito;-inkscape-font-specification:Nunito-Bold;writing-mode:lr-tb;fill:#1e1e1e;fill-opacity:1;fill-rule:nonzero;stroke:none"
         transform="rotate(23.5242,-2608.2138,4559.7047)"><tspan
           id="tspan92"
           y="0"
           x="0 47.638046 95.542725 144.06953">Text</tspan></text>
<text
         id="text98"
         style="font-variant:normal;font-weight:bold;font-size:88.87695312px;font-family:Nunito;-inkscape-font-specification:Nunito-Bold;writing-mode:lr-tb;fill:#1e1e1e;fill-opacity:1;fill-rule:nonzero;stroke:none"
         transform="rotate(23.5242,-2708.7781,5042.6745)"><tspan
           id="tspan96"
           y="0"
           x="0 32.528965">to</tspan></text>
<text
         id="text102"
         style="font-variant:normal;font-weight:bold;font-size:88.87695312px;font-family:Nunito;-inkscape-font-specification:Nunito-Bold;writing-mode:lr-tb;fill:#1e1e1e;fill-opacity:1;fill-rule:nonzero;stroke:none"
         transform="rotate(23.5242,-2762.682,5301.5531)"><tspan
           id="tspan100"
           y="0"
           x="0 32.528965 80.43364 128.96046">text</tspan></text>
<g
         id="g104"><path
           id="path106"
           style="fill:none;stroke:#1e1e1e;stroke-width:4.5;stroke-linecap:round;stroke-linejoin:miter;stroke-miterlimit:4;stroke-dasharray:none;stroke-opacity:1"
           d="m 3289.883,1319.734 c -0.043,-12.195 -0.18,-61 -0.203,-73.214 m 0.203,73.214 c -0.043,-12.195 -0.18,-61 -0.203,-73.214" /></g><text
         id="text110"
         style="font-variant:normal;font-weight:bold;font-size:84.26464844px;font-family:Nunito;-inkscape-font-specification:Nunito-Bold;writing-mode:lr-tb;fill:#1e1e1e;fill-opacity:1;fill-rule:nonzero;stroke:none"
         transform="rotate(21.548853,-2021.954,8849.4766)"><tspan
           id="tspan108"
           y="0"
           x="0 62.692898 111.48213 162.04092 183.5284">Audio</tspan></text>
<text
         id="text114"
         style="font-variant:normal;font-weight:bold;font-size:84.26464844px;font-family:Nunito;-inkscape-font-specification:Nunito-Bold;writing-mode:lr-tb;fill:#1e1e1e;fill-opacity:1;fill-rule:nonzero;stroke:none"
         transform="rotate(21.548853,-2149.4043,9519.2183)"><tspan
           id="tspan112"
           y="0"
           x="0 46.092762 95.387581">and</tspan></text>
<text
         id="text118"
         style="font-variant:normal;font-weight:bold;font-size:84.26464844px;font-family:Nunito;-inkscape-font-specification:Nunito-Bold;writing-mode:lr-tb;fill:#1e1e1e;fill-opacity:1;fill-rule:nonzero;stroke:none"
         transform="rotate(21.548853,-2233.7953,9962.6869)"><tspan
           id="tspan116"
           y="0"
           x="0 30.84086 76.259506 122.26801">text</tspan></text>
<text
         id="text122"
         style="font-variant:normal;font-weight:bold;font-size:84.26464844px;font-family:Nunito;-inkscape-font-specification:Nunito-Bold;writing-mode:lr-tb;fill:#1e1e1e;fill-opacity:1;fill-rule:nonzero;stroke:none"
         transform="rotate(21.548853,-2321.9783,10426.082)"><tspan
           id="tspan120"
           y="0"
           x="0 30.84086">to</tspan></text>
<text
         id="text126"
         style="font-variant:normal;font-weight:bold;font-size:84.26464844px;font-family:Nunito;-inkscape-font-specification:Nunito-Bold;writing-mode:lr-tb;fill:#1e1e1e;fill-opacity:1;fill-rule:nonzero;stroke:none"
         transform="rotate(21.548853,-2373.0848,10694.643)"><tspan
           id="tspan124"
           y="0"
           x="0 30.84086 76.259506 122.26801">text</tspan></text>
<g
         id="g128"><path
           id="path130"
           style="fill:none;stroke:#1e1e1e;stroke-width:4.5;stroke-linecap:round;stroke-linejoin:miter;stroke-miterlimit:4;stroke-dasharray:none;stroke-opacity:1"
           d="m 3679.945,1323.047 c -0.043,-12.871 -0.179,-64.352 -0.199,-77.242 m 0.199,77.242 c -0.043,-12.871 -0.179,-64.352 -0.199,-77.242" /></g><text
         id="text134"
         style="font-variant:normal;font-weight:bold;font-size:91.27636719px;font-family:Nunito;-inkscape-font-specification:Nunito-Bold;writing-mode:lr-tb;fill:#1e1e1e;fill-opacity:1;fill-rule:nonzero;stroke:none"
         transform="translate(1048.7266,114.13793)"><tspan
           id="tspan132"
           y="0"
           x="0 67.909615 102.95974 146.04219 199.43886 222.71434 256.12149 305.59326 348.67572 382.7218 435.57083 470.62094 520.09271">Architectures</tspan></text>
<g
         id="g136"><path
           id="path138"
           style="fill:none;stroke:#1e1e1e;stroke-width:4.5;stroke-linecap:round;stroke-linejoin:miter;stroke-miterlimit:4;stroke-dasharray:none;stroke-opacity:1"
           d="m 1694.375,1327.336 c -0.043,-12.871 -0.18,-64.352 -0.203,-77.242 m 0.203,77.242 c -0.043,-12.871 -0.18,-64.352 -0.203,-77.242" /></g><text
         id="text142"
         style="font-variant:normal;font-weight:bold;font-size:86.02050781px;font-family:Nunito;-inkscape-font-specification:Nunito-Bold;writing-mode:lr-tb;fill:#1e1e1e;fill-opacity:1;fill-rule:nonzero;stroke:none"
         transform="rotate(21.538213,-2216.3825,8025.238)"><tspan
           id="tspan140"
           y="0"
           x="0 46.106991 92.472046 139.43924">Text</tspan></text>
<text
         id="text146"
         style="font-variant:normal;font-weight:bold;font-size:86.02050781px;font-family:Nunito;-inkscape-font-specification:Nunito-Bold;writing-mode:lr-tb;fill:#1e1e1e;fill-opacity:1;fill-rule:nonzero;stroke:none"
         transform="rotate(21.538213,-2313.7147,8536.9701)"><tspan
           id="tspan144"
           y="0"
           x="0 47.053219 97.375214">and</tspan></text>
<text
         id="text150"
         style="font-variant:normal;font-weight:bold;font-size:86.02050781px;font-family:Nunito;-inkscape-font-specification:Nunito-Bold;writing-mode:lr-tb;fill:#1e1e1e;fill-opacity:1;fill-rule:nonzero;stroke:none"
         transform="rotate(21.538213,-2399.8642,8989.9085)"><tspan
           id="tspan148"
           y="0"
           x="0 45.332806 67.268036 109.24605 131.18127 180.72908">vision</tspan></text>
<text
         id="text154"
         style="font-variant:normal;font-weight:bold;font-size:86.02050781px;font-family:Nunito;-inkscape-font-specification:Nunito-Bold;writing-mode:lr-tb;fill:#1e1e1e;fill-opacity:1;fill-rule:nonzero;stroke:none"
         transform="rotate(21.538213,-2527.0455,9658.5749)"><tspan
           id="tspan152"
           y="0"
           x="0 31.483505">to</tspan></text>
<text
         id="text158"
         style="font-variant:normal;font-weight:bold;font-size:86.02050781px;font-family:Nunito;-inkscape-font-specification:Nunito-Bold;writing-mode:lr-tb;fill:#1e1e1e;fill-opacity:1;fill-rule:nonzero;stroke:none"
         transform="rotate(21.538213,-2579.217,9932.8706)"><tspan
           id="tspan156"
           y="0"
           x="0 31.483505 77.848557 124.81576">text</tspan></text>
<text
         id="text162"
         style="font-variant:normal;font-weight:bold;font-size:88.12109375px;font-family:Nunito;-inkscape-font-specification:Nunito-Bold;writing-mode:lr-tb;fill:#ffd43b;fill-opacity:1;fill-rule:nonzero;stroke:none"
         transform="translate(1901.457,1805.5295)"><tspan
           id="tspan160"
           y="0"
           x="0 55.604412 78.075287 129.62613 182.85127 210.52129">Single</tspan></text>
<text
         id="text166"
         style="font-variant:normal;font-weight:bold;font-size:88.12109375px;font-family:Nunito;-inkscape-font-specification:Nunito-Bold;writing-mode:lr-tb;fill:#ffd43b;fill-opacity:1;fill-rule:nonzero;stroke:none"
         transform="translate(2183.6208,1805.5295)"><tspan
           id="tspan164"
           y="0"
           x="0 76.489113 127.24686 180.11952 228.32176">Modal</tspan></text>
<text
         id="text170"
         style="font-variant:normal;font-weight:bold;font-size:85.29589844px;font-family:Nunito;-inkscape-font-specification:Nunito-Bold;writing-mode:lr-tb;fill:#a18072;fill-opacity:1;fill-rule:nonzero;stroke:none"
         transform="rotate(-0.39352446,263364.38,-460969.72)"><tspan
           id="tspan168"
           y="0"
           x="0 74.036842 123.42316 149.52371 182.27733 204.02779 241.0462 315.85071 364.98114 416.15869 462.81555">Multi-modal</tspan></text>
<text
         id="text174"
         style="font-variant:normal;font-weight:bold;font-size:83.70507812px;font-family:Nunito;-inkscape-font-specification:Nunito-Bold;writing-mode:lr-tb;fill:#1e1e1e;fill-opacity:1;fill-rule:nonzero;stroke:none"
         transform="translate(73.039062,1408.7544)"><tspan
           id="tspan172"
           y="0"
           x="0 53.989777 102.2039 128.48729 176.70142 208.84416 254.21233">Colored</tspan></text>
<text
         id="text178"
         style="font-variant:normal;font-weight:bold;font-size:83.70507812px;font-family:Nunito;-inkscape-font-specification:Nunito-Bold;writing-mode:lr-tb;fill:#1e1e1e;fill-opacity:1;fill-rule:nonzero;stroke:none"
         transform="translate(400.15851,1408.7544)"><tspan
           id="tspan176"
           y="0"
           x="0 62.276577 94.419327 139.78748 185.57416 226.42224">Areas:</tspan></text>
<text
         id="text182"
         style="font-variant:normal;font-weight:bold;font-size:83.70507812px;font-family:Nunito;-inkscape-font-specification:Nunito-Bold;writing-mode:lr-tb;fill:#1e1e1e;fill-opacity:1;fill-rule:nonzero;stroke:none"
         transform="translate(670.02368,1408.7544)"><tspan
           id="tspan180"
           y="0"
           x="0 55.998695 104.96617">The</tspan></text>
<text
         id="text186"
         style="font-variant:normal;font-weight:bold;font-size:83.70507812px;font-family:Nunito;-inkscape-font-specification:Nunito-Bold;writing-mode:lr-tb;fill:#1e1e1e;fill-opacity:1;fill-rule:nonzero;stroke:none"
         transform="translate(843.04207,1408.7544)"><tspan
           id="tspan184"
           y="0"
           x="0 52.817905 114.92707 159.793">SOTA</tspan></text>
<text
         id="text192"
         style="font-variant:normal;font-weight:bold;font-size:83.70507812px;font-family:Nunito;-inkscape-font-specification:Nunito-Bold;writing-mode:lr-tb;fill:#1e1e1e;fill-opacity:1;fill-rule:nonzero;stroke:none"
         transform="translate(1087.7957,1408.7544)"><tspan
           id="tspan188"
           y="0"
           x="0 48.214127 98.437172 143.80533 192.7728">open-</tspan><tspan
           id="tspan190"
           y="113.00395"
           x="-1014.7567 -973.90857 -925.69446 -877.22919 -845.08649 -806.41473">source</tspan></text>
<text
         id="text196"
         style="font-variant:normal;font-weight:bold;font-size:83.70507812px;font-family:Nunito;-inkscape-font-specification:Nunito-Bold;writing-mode:lr-tb;fill:#1e1e1e;fill-opacity:1;fill-rule:nonzero;stroke:none"
         transform="translate(349.43323,1521.7583)"><tspan
           id="tspan194"
           y="0"
           x="0 73.409355 121.62348 171.84653 217.21468">model</tspan></text>
<text
         id="text200"
         style="font-variant:normal;font-weight:bold;font-size:83.70507812px;font-family:Nunito;-inkscape-font-specification:Nunito-Bold;writing-mode:lr-tb;fill:#1e1e1e;fill-opacity:1;fill-rule:nonzero;stroke:none"
         transform="translate(616.0339,1521.7583)"><tspan
           id="tspan198"
           y="0"
           x="0 27.706381 75.920509">for</tspan></text>
<text
         id="text204"
         style="font-variant:normal;font-weight:bold;font-size:83.70507812px;font-family:Nunito;-inkscape-font-specification:Nunito-Bold;writing-mode:lr-tb;fill:#1e1e1e;fill-opacity:1;fill-rule:nonzero;stroke:none"
         transform="translate(747.45088,1521.7583)"><tspan
           id="tspan202"
           y="0"
           x="0 45.786678 85.295471 134.26294 155.60774 200.30626 244.41882 265.76361 314.73108">achieving</tspan></text>
<text
         id="text208"
         style="font-variant:normal;font-weight:bold;font-size:83.70507812px;font-family:Nunito;-inkscape-font-specification:Nunito-Bold;writing-mode:lr-tb;fill:#1e1e1e;fill-opacity:1;fill-rule:nonzero;stroke:none"
         transform="translate(1135.4239,1521.7583)"><tspan
           id="tspan206"
           y="0"
           x="0 32.14275 81.110222">the</tspan></text>
<text
         id="text214"
         style="font-variant:normal;font-weight:bold;font-size:83.70507812px;font-family:Nunito;-inkscape-font-specification:Nunito-Bold;writing-mode:lr-tb;fill:#1e1e1e;fill-opacity:1;fill-rule:nonzero;stroke:none"
         transform="translate(1284.5864,1521.7583)"><tspan
           id="tspan210"
           y="0"
           x="0 50.223045 95.591202 136.02075">best</tspan><tspan
           id="tspan212"
           y="113.00001"
           x="-1211.5472 -1161.3242 -1115.9561 -1080.7999 -1053.0936 -1004.8795 -972.06708 -898.65771 -852.87103 -803.90356 -765.23181">performance</tspan></text>
<text
         id="text218"
         style="font-variant:normal;font-weight:bold;font-size:83.70507812px;font-family:Nunito;-inkscape-font-specification:Nunito-Bold;writing-mode:lr-tb;fill:#1e1e1e;fill-opacity:1;fill-rule:nonzero;stroke:none"
         transform="translate(587.40677,1634.7584)"><tspan
           id="tspan216"
           y="0"
           x="0 27.706381 75.920509">for</tspan></text>
<text
         id="text222"
         style="font-variant:normal;font-weight:bold;font-size:83.70507812px;font-family:Nunito;-inkscape-font-specification:Nunito-Bold;writing-mode:lr-tb;fill:#1e1e1e;fill-opacity:1;fill-rule:nonzero;stroke:none"
         transform="translate(718.82374,1634.7584)"><tspan
           id="tspan220"
           y="0"
           x="0">a</tspan></text>
<text
         id="text226"
         style="font-variant:normal;font-weight:bold;font-size:83.70507812px;font-family:Nunito;-inkscape-font-specification:Nunito-Bold;writing-mode:lr-tb;fill:#1e1e1e;fill-opacity:1;fill-rule:nonzero;stroke:none"
         transform="translate(787.29449,1634.7584)"><tspan
           id="tspan224"
           y="0"
           x="0 50.557869 71.902664 115.17818 160.54634">given</tspan></text>
<text
         id="text232"
         style="font-variant:normal;font-weight:bold;font-size:83.70507812px;font-family:Nunito;-inkscape-font-specification:Nunito-Bold;writing-mode:lr-tb;fill:#1e1e1e;fill-opacity:1;fill-rule:nonzero;stroke:none"
         transform="translate(1019.4924,1634.7584)"><tspan
           id="tspan228"
           y="0"
           x="0 45.786678 77.929428 117.43822 166.4057 187.75049 218.38655 263.7547 303.26349 334.4855 382.95074 415.09348">architecture</tspan><tspan
           id="tspan230"
           y="113.00001"
           x="-946.45331 -900.66663 -851.69916">and</tspan></text>
<text
         id="text236"
         style="font-variant:normal;font-weight:bold;font-size:83.70507812px;font-family:Nunito;-inkscape-font-specification:Nunito-Bold;writing-mode:lr-tb;fill:#1e1e1e;fill-opacity:1;fill-rule:nonzero;stroke:none"
         transform="translate(240.70033,1747.7584)"><tspan
           id="tspan234"
           y="0"
           x="0 73.409355 121.62348 171.84653 217.63321 244.33513 265.67993 297.40414 337.41516">modality.</tspan></text>
<g
         id="g238"><path
           id="path240"
           style="fill:none;stroke:#868e96;stroke-width:5.625;stroke-linecap:round;stroke-linejoin:miter;stroke-miterlimit:4;stroke-dasharray:17.999999, 22.499998;stroke-dashoffset:0;stroke-opacity:1"
           d="m 94.5,1312.566 c 329.895,0 659.789,0 1319.469,0 m 0,0 c 47.992,0 72,24.008 72,72 m 0,0 c 0,71.125 0,142.246 0,321.934 m 0,0 c 0,47.992 -24.008,72 -72,72 m 0,0 c -439.629,0 -879.235,0 -1319.469,0 m 0,0 c -47.992,0 -72,-24.008 -72,-72 m 0,0 c 0,-119.34 0,-238.684 0,-321.934 m 0,0 c 0,-47.992 24.008,-72 72,-72" /></g><text
         id="text244"
         style="font-variant:normal;font-weight:bold;font-size:87.98242188px;font-family:Nunito;-inkscape-font-specification:Nunito-Bold;writing-mode:lr-tb;fill:#1e1e1e;fill-opacity:1;fill-rule:nonzero;stroke:none"
         transform="translate(2649.2578,1918.1584)"><tspan
           id="tspan242"
           y="0"
           x="0 76.368744 127.04662 179.83607 227.96245 256.02884 278.46436 312.2496 334.68512 382.37161">Modalities</tspan></text>
<text
         id="text248"
         style="font-variant:normal;font-weight:bold;font-size:92.63867188px;font-family:Nunito;-inkscape-font-specification:Nunito-Bold;writing-mode:lr-tb;fill:#0c8599;fill-opacity:1;fill-rule:nonzero;stroke:none"
         transform="translate(87.394531,1159.4648)"><tspan
           id="tspan246"
           y="0"
           x="0 68.923172 122.56097 156.46672 209.8266 245.39984 295.61002 351.56375 387.13702 437.34717 482.55484 527.76251 551.38538 599.27954">Autoregressive</tspan></text>
<text
         id="text252"
         style="font-variant:normal;font-weight:bold;font-size:92.63867188px;font-family:Nunito;-inkscape-font-specification:Nunito-Bold;writing-mode:lr-tb;fill:#0c8599;fill-opacity:1;fill-rule:nonzero;stroke:none"
         transform="translate(761.98934,1159.4648)"><tspan
           id="tspan250"
           y="0"
           x="0 49.654327 85.505493 136.17885 190.37247 235.58014 266.24353 319.60342 355.91779 437.1619 487.37204 523.22321">Transformers</tspan></text>
<g
         id="g254"><path
           id="path256"
           style="fill:none;stroke:#1e1e1e;stroke-width:4.5;stroke-linecap:round;stroke-linejoin:miter;stroke-miterlimit:4;stroke-dasharray:none;stroke-opacity:1"
           d="m 1310.738,1148.102 c 15.59,0.113 78.008,0.605 93.621,0.742 m -93.621,-0.742 c 15.59,0.113 78.008,0.605 93.621,0.742" /></g><g
         id="g258"><path
           id="path260"
           style="fill:none;stroke:#ffd43b;stroke-width:5.625;stroke-linecap:round;stroke-linejoin:miter;stroke-miterlimit:4;stroke-dasharray:17.999999, 22.499998;stroke-dashoffset:0;stroke-opacity:1"
           d="m 1608.809,1289.953 c 421.738,0 843.457,0 1063.418,0 m 0,0 c 47.992,0 72,24.004 72,72 m 0,0 c 0,73.91 0,147.824 0,285.973 m 0,0 c 0,47.992 -24.008,72 -72,72 m 0,0 c -302.696,0 -605.364,0 -1063.418,0 m 0,0 c -47.993,0 -72,-24.008 -72,-72 m 0,0 c 0,-75.711 0,-151.403 0,-285.973 m 0,0 c 0,-47.996 24.007,-72 72,-72" /></g><text
         id="text264"
         style="font-variant:normal;font-weight:bold;font-size:87.72167969px;font-family:Nunito;-inkscape-font-specification:Nunito-Bold;writing-mode:lr-tb;fill:#1e1e1e;fill-opacity:1;fill-rule:nonzero;stroke:none"
         transform="rotate(20.124001,-2092.3767,10533.929)"><tspan
           id="tspan262"
           y="0"
           x="0 65.264931 116.1435">Any</tspan></text>
<text
         id="text268"
         style="font-variant:normal;font-weight:bold;font-size:87.72167969px;font-family:Nunito;-inkscape-font-specification:Nunito-Bold;writing-mode:lr-tb;fill:#1e1e1e;fill-opacity:1;fill-rule:nonzero;stroke:none"
         transform="rotate(20.124001,-2185.4056,11058.204)"><tspan
           id="tspan266"
           y="0"
           x="0 32.106136">to</tspan></text>
<text
         id="text272"
         style="font-variant:normal;font-weight:bold;font-size:87.72167969px;font-family:Nunito;-inkscape-font-specification:Nunito-Bold;writing-mode:lr-tb;fill:#1e1e1e;fill-opacity:1;fill-rule:nonzero;stroke:none"
         transform="rotate(20.124001,-2238.6088,11358.036)"><tspan
           id="tspan270"
           y="0"
           x="0 47.983757 98.862335">any</tspan></text>
<g
         id="g274"><path
           id="path276"
           style="fill:none;stroke:#a18072;stroke-width:5.625;stroke-linecap:round;stroke-linejoin:miter;stroke-miterlimit:4;stroke-dasharray:17.999999, 22.499998;stroke-dashoffset:0;stroke-opacity:1"
           d="m 2862.945,1281.184 c 312.211,0 624.442,0 1004.332,0 m 0,0 c 47.993,0 72,24.007 72,72 m 0,0 c 0,64.418 0,128.836 0,279.808 m 0,0 c 0,48.016 -24.007,72 -72,72 m 0,0 c -274.949,0 -549.898,0 -1004.332,0 m 0,0 c -47.992,0 -72,-23.984 -72,-72 m 0,0 c 0,-109.101 0,-218.203 0,-279.808 m 0,0 c 0,-47.993 24.008,-72 72,-72" /></g><g
         id="g278"><path
           id="path280"
           style="fill:none;stroke:#ffd43b;stroke-width:2.25;stroke-linecap:round;stroke-linejoin:miter;stroke-miterlimit:4;stroke-dasharray:none;stroke-opacity:1"
           d="m 1526.621,940.645 v 0 m 0,0 v 0 m -14.465,44.078 c 13.184,-15.145 26.348,-30.285 53.145,-61.133 m -53.145,61.133 c 19.957,-22.973 39.914,-45.922 53.145,-61.133 m -54.317,89.91 c 21.332,-24.527 42.637,-49.051 79.719,-91.688 m -79.719,91.688 c 20.86,-23.984 41.715,-47.969 79.719,-91.688 m -79.426,118.778 c 36.383,-41.828 72.766,-83.68 101.856,-117.156 m -101.856,117.156 c 37.825,-43.492 75.645,-87.008 101.856,-117.156 m -101.539,144.246 c 31.992,-36.789 63.988,-73.598 125.457,-144.336 m -125.457,144.336 c 40.07,-46.082 80.121,-92.184 125.457,-144.336 m -126.653,173.136 c 48.692,-56.003 97.36,-111.984 150.571,-173.207 m -150.571,173.207 c 54.497,-62.687 108.993,-125.371 150.571,-173.207 m -150.254,200.297 c 63.922,-73.531 127.824,-147.062 174.172,-200.363 m -174.172,200.363 c 48.441,-55.734 96.887,-111.465 174.172,-200.363 m -175.364,229.164 c 50.332,-57.918 100.665,-115.809 199.282,-229.254 m -199.282,229.254 c 50.063,-57.601 100.125,-115.18 199.282,-229.254 m -194.535,251.235 c 71.414,-82.149 142.832,-164.293 218.453,-251.301 m -218.453,251.301 c 76.363,-87.84 152.73,-175.704 218.453,-251.301 m -209.297,268.222 c 54.969,-63.273 109.957,-126.519 233.215,-268.312 m -233.215,268.312 c 48.601,-55.937 97.222,-111.871 233.215,-268.312 m -219.645,280.101 c 83.496,-96.031 166.973,-192.058 243.563,-280.171 m -243.563,280.171 c 75.711,-87.074 151.422,-174.171 243.563,-280.171 m -227.028,288.586 c 87.348,-100.461 174.668,-200.926 250.946,-288.676 m -250.946,288.676 c 67.457,-77.579 134.887,-155.161 250.946,-288.676 m -228.489,290.297 c 76.117,-87.547 152.211,-175.118 247.992,-285.278 m -247.992,285.278 c 75.555,-86.918 151.133,-173.86 247.992,-285.278 m -224.074,285.211 c 60.231,-69.301 120.485,-138.625 242.074,-278.484 m -242.074,278.484 c 80.547,-92.656 161.098,-185.336 242.074,-278.484 m -218.16,278.391 c 91.196,-104.915 182.41,-209.833 230.266,-264.891 m -230.266,264.891 c 55.196,-63.493 110.387,-126.989 230.266,-264.891 m -206.348,264.824 c 82.375,-94.746 164.723,-189.516 215.508,-247.926 m -215.508,247.926 c 79.02,-90.898 158.02,-181.801 215.508,-247.926 m -191.59,247.86 c 52.852,-60.817 105.707,-121.614 194.852,-224.168 m -194.852,224.168 c 75.961,-87.391 151.922,-174.782 194.852,-224.168 m -170.934,224.078 c 64.418,-74.117 128.86,-148.231 171.227,-196.988 m -171.227,196.988 c 34.653,-39.848 69.301,-79.719 171.227,-196.988 m -148.793,198.609 c 41.445,-47.68 82.89,-95.356 149.086,-171.496 m -149.086,171.496 c 58.883,-67.727 117.742,-135.453 149.086,-171.496 m -125.168,171.426 c 30.215,-34.786 60.457,-69.547 123.996,-142.649 m -123.996,142.649 c 41.828,-48.125 83.676,-96.254 123.996,-142.649 m -100.078,142.559 c 24.703,-28.418 49.41,-56.832 100.371,-115.469 m -100.371,115.469 c 26.097,-30.035 52.222,-60.051 100.371,-115.469 m -76.457,115.402 c 29.297,-33.703 58.594,-67.41 76.773,-88.312 m -76.773,88.312 c 25.719,-29.566 51.414,-59.152 76.773,-88.312 m -51.367,86.535 c 14.531,-16.738 29.066,-33.457 50.172,-57.734 m -50.172,57.734 c 17.887,-20.586 35.774,-41.152 50.172,-57.734 m -338.063,41.535 v 0 m 0,0 v 0 m 45.766,15.953 c -13.051,-11.34 -26.078,-22.68 -62.82,-54.633 m 62.82,54.633 c -13.859,-12.039 -27.695,-24.098 -62.82,-54.633 m 89.91,54.317 c -34.715,-30.172 -69.434,-60.344 -91.688,-79.696 m 91.688,79.696 c -27.313,-23.739 -54.629,-47.477 -91.688,-79.696 m 118.778,79.403 c -33.098,-28.778 -66.196,-57.555 -117.156,-101.856 m 117.156,101.856 c -41.512,-36.09 -83.047,-72.18 -117.156,-101.856 m 144.246,101.563 c -51.051,-44.372 -102.082,-88.762 -144.336,-125.481 m 144.336,125.481 c -45.856,-39.872 -91.731,-79.739 -144.336,-125.481 m 173.136,126.652 c -48.824,-42.437 -97.648,-84.871 -173.203,-150.57 m 173.203,150.57 c -39.148,-34.043 -78.32,-68.062 -173.203,-150.57 m 200.293,150.277 c -46.281,-40.23 -92.543,-80.46 -200.383,-174.195 m 200.383,174.195 c -61.898,-53.82 -123.793,-107.617 -200.383,-174.195 m 227.473,173.879 c -58.566,-50.894 -117.133,-101.812 -227.543,-197.797 m 227.543,197.797 c -61.176,-53.168 -122.375,-106.355 -227.543,-197.797 m 256.344,198.989 c -84.465,-73.415 -168.93,-146.833 -256.434,-222.907 m 256.434,222.907 c -92.969,-80.817 -185.942,-161.637 -256.434,-222.907 m 285.211,224.078 c -97.289,-84.578 -194.601,-169.156 -281.879,-245.047 m 281.879,245.047 c -79.469,-69.097 -158.961,-138.171 -281.879,-245.047 m 305.571,241.786 c -105.254,-91.485 -210.532,-182.993 -298.868,-259.786 m 298.868,259.786 c -70.403,-61.2 -140.829,-122.422 -298.868,-259.786 m 317.477,252.114 C 1725.41,1106.02 1613.629,1008.863 1531.504,937.473 m 305.664,265.703 c -70.289,-61.114 -140.582,-122.199 -305.664,-265.703 m 319.164,253.597 C 1732.992,1088.785 1615.316,986.477 1546.715,926.852 m 303.953,264.218 C 1744.105,1098.438 1637.57,1005.805 1546.715,926.852 m 314.078,249.164 c -65.34,-56.789 -130.66,-113.578 -292.074,-253.911 m 292.074,253.911 c -71.055,-61.762 -142.109,-123.524 -292.074,-253.911 m 297.09,234.403 c -82.664,-71.84 -165.329,-143.707 -270,-234.696 m 270,234.696 c -106.805,-92.832 -213.59,-185.668 -270,-234.696 m 271.621,212.266 c -75.422,-65.566 -150.84,-131.109 -244.532,-212.558 m 244.532,212.558 c -53.258,-46.285 -106.492,-92.566 -244.532,-212.558 m 244.442,188.64 c -79.469,-69.098 -158.961,-138.172 -217.352,-188.957 m 217.352,188.957 c -70.492,-61.269 -140.985,-122.558 -217.352,-188.957 m 217.285,165.039 c -55.328,-48.082 -110.632,-96.164 -188.507,-163.844 m 188.507,163.844 c -40.523,-35.234 -81.07,-70.469 -188.507,-163.844 m 188.418,139.926 c -33.301,-28.933 -66.602,-57.89 -161.305,-140.242 m 161.305,140.242 c -57.465,-49.949 -114.93,-99.922 -161.305,-140.242 m 161.234,116.324 c -45.179,-39.285 -90.383,-78.547 -134.144,-116.617 m 134.144,116.617 c -35.187,-30.578 -70.355,-61.176 -134.144,-116.617 m 134.054,92.699 c -26.683,-23.195 -53.39,-46.418 -105.277,-91.527 m 105.277,91.527 c -39.621,-34.445 -79.242,-68.894 -105.277,-91.527 m 105.211,67.609 c -21.937,-19.054 -43.875,-38.136 -78.121,-67.902 m 78.121,67.902 c -27.516,-23.914 -55.035,-47.855 -78.121,-67.902 m 72.945,39.555 c -13.972,-12.153 -27.965,-24.301 -44.144,-38.387 m 44.144,38.387 c -14.804,-12.871 -29.609,-25.743 -44.144,-38.387" /></g><text
         id="text286"
         style="font-variant:normal;font-weight:bold;font-size:68.54785156px;font-family:Nunito;-inkscape-font-specification:Nunito-Bold;writing-mode:lr-tb;fill:#1e1e1e;fill-opacity:1;fill-rule:nonzero;stroke:none"
         transform="translate(1581.3711,998.0769)"><tspan
           id="tspan282"
           y="0"
           x="0 38.523891 60.390659 97.88633 158.00279 195.49847">Llama,</tspan><tspan
           id="tspan284"
           y="92.542961"
           x="-56.824249 -3.0141861 54.771652 91.924591">Qwen</tspan></text>
<text
         id="text292"
         style="font-variant:normal;font-weight:bold;font-size:68.54785156px;font-family:Nunito;-inkscape-font-specification:Nunito-Bold;writing-mode:lr-tb;fill:#1e1e1e;fill-opacity:1;fill-rule:nonzero;stroke:none"
         transform="translate(1731.9726,1090.6199)"><tspan
           id="tspan288"
           y="0"
           x="0 37.495674 77.596169">and</tspan><tspan
           id="tspan290"
           y="92.539055"
           x="-205.33595 -153.10249 -115.94955 -78.796623 -37.667908 5.5857863 42.738724 79.891655">DeepSeek</tspan></text>
<g
         id="g294"><path
           id="path296"
           style="fill:none;stroke:#b2f2bb;stroke-width:2.25;stroke-linecap:round;stroke-linejoin:miter;stroke-miterlimit:4;stroke-dasharray:none;stroke-opacity:1"
           d="m 1891.656,617.516 v 0 m 0,0 v 0 m -14.468,44.078 c 14.761,-16.989 29.523,-33.953 53.148,-61.133 m -53.148,61.133 c 11.433,-13.141 22.863,-26.282 53.148,-61.133 m -54.316,89.91 c 28.304,-32.559 56.609,-65.117 79.718,-91.687 m -79.718,91.687 c 26.64,-30.648 53.281,-61.293 79.718,-91.687 m -79.425,118.777 c 35.773,-41.133 71.527,-82.285 101.855,-117.16 m -101.855,117.16 c 32.242,-37.082 64.507,-74.184 101.855,-117.16 m -101.543,144.25 c 42.863,-49.321 85.75,-98.664 125.461,-144.34 m -125.461,144.34 c 48.422,-55.711 96.863,-111.422 125.461,-144.34 m -125.168,171.43 c 57.129,-65.7 114.234,-131.422 149.086,-171.496 m -149.086,171.496 c 52.426,-60.301 104.828,-120.602 149.086,-171.496 M 1877.211,798.73 c 57.082,-65.632 114.144,-131.289 172.711,-198.675 M 1877.211,798.73 c 49.93,-57.421 99.855,-114.863 172.711,-198.675 m -173.879,227.476 c 50.758,-58.41 101.52,-116.801 197.797,-227.543 m -197.797,227.543 c 43.918,-50.535 87.863,-101.07 197.797,-227.543 m -193.074,249.547 c 58.859,-67.726 117.722,-135.43 216.992,-249.637 m -216.992,249.637 c 44.125,-50.762 88.269,-101.543 216.992,-249.637 m -207.832,266.536 c 78.57,-90.383 157.117,-180.743 231.75,-266.606 m -231.75,266.606 c 91.754,-105.571 183.531,-211.118 231.75,-266.606 m -218.16,278.418 c 72.293,-83.184 144.605,-166.367 242.078,-278.484 m -242.078,278.484 c 85.812,-98.73 171.652,-197.461 242.078,-278.484 m -224.078,285.187 c 69.906,-80.39 139.793,-160.808 247.992,-285.277 m -247.992,285.277 c 76.047,-87.457 152.078,-174.937 247.992,-285.277 M 1943.969,886.57 c 81.25,-93.465 162.519,-186.953 245.027,-281.879 M 1943.969,886.57 c 57.285,-65.902 114.594,-131.804 245.027,-281.879 M 1967.887,886.5 c 52.922,-60.883 105.863,-121.77 239.129,-275.105 M 1967.887,886.5 c 84.441,-97.152 168.886,-194.285 239.129,-275.105 M 1991.805,886.41 c 62.144,-71.48 124.289,-142.965 227.316,-261.492 M 1991.805,886.41 c 90.496,-104.105 180.988,-208.215 227.316,-261.492 m -203.398,261.426 c 80.324,-92.406 160.648,-184.813 212.558,-244.528 m -212.558,244.528 c 63.808,-73.418 127.621,-146.836 212.558,-244.528 m -188.64,244.438 c 40.589,-46.688 81.203,-93.399 191.902,-220.746 m -191.902,220.746 c 51.793,-59.578 103.589,-119.184 191.902,-220.746 m -167.984,220.68 c 43.129,-49.637 86.261,-99.247 168.277,-193.59 m -168.277,193.59 c 46.796,-53.844 93.621,-107.708 168.277,-193.59 m -145.848,195.211 c 31.907,-36.676 63.789,-73.375 146.137,-168.121 m -146.137,168.121 c 49.321,-56.723 98.617,-113.446 146.137,-168.121 m -122.219,168.05 c 29.77,-34.242 59.535,-68.488 121.051,-139.25 m -121.051,139.25 c 46.375,-53.347 92.723,-106.672 121.051,-139.25 m -97.133,139.16 c 34.086,-39.195 68.153,-78.39 97.426,-112.07 m -97.426,112.07 c 34.539,-39.71 69.051,-79.425 97.426,-112.07 m -73.508,112.004 c 16.266,-18.699 32.512,-37.394 73.821,-84.914 m -73.821,84.914 c 20.383,-23.469 40.77,-46.914 73.821,-84.914 m -46.958,81.426 c 11.321,-12.981 22.614,-25.989 45.766,-52.625 m -45.766,52.625 c 15.571,-17.887 31.141,-35.797 45.766,-52.625 m -337.973,38 v 0 m 0,0 v 0 m 44.079,14.469 c -20.477,-17.797 -40.95,-35.594 -61.133,-53.145 m 61.133,53.145 c -23.219,-20.184 -46.418,-40.344 -61.133,-53.145 m 89.91,54.312 c -21.508,-18.695 -43.02,-37.417 -90,-78.23 m 90,78.23 c -27.203,-23.644 -54.406,-47.293 -90,-78.23 m 117.09,77.937 c -26.121,-22.722 -52.266,-45.449 -117.156,-101.855 m 117.156,101.855 c -26.188,-22.769 -52.379,-45.539 -117.156,-101.855 m 144.246,101.566 c -36.473,-31.726 -72.946,-63.429 -144.336,-125.484 m 144.336,125.484 C 1963.68,836.035 1907.902,787.547 1875.098,759.039 m 173.136,126.652 c -52.921,-46.011 -105.839,-92 -173.203,-150.57 m 173.203,150.57 c -49.925,-43.402 -99.832,-86.781 -173.203,-150.57 m 200.293,150.254 C 1997.34,817.605 1919.375,749.816 1874.961,711.203 m 200.363,174.172 C 2002.898,822.422 1930.469,759.469 1874.961,711.203 m 227.453,173.883 C 2021.031,814.32 1939.625,743.582 1876.582,688.773 m 225.832,196.313 C 2044.723,834.934 1987.035,784.781 1876.582,688.773 m 254.633,197.481 C 2043.621,810.137 1956.051,734.02 1876.492,664.855 m 254.723,221.399 C 2050.418,816.031 1969.621,745.785 1876.492,664.855 m 283.5,222.59 C 2061.219,801.566 1962.441,715.703 1878.113,642.398 m 281.879,245.047 C 2083.086,820.578 2006.184,753.73 1878.113,642.398 m 303.883,240.325 c -87.637,-76.188 -175.25,-152.348 -295.469,-256.86 m 295.469,256.86 c -91.258,-79.336 -182.519,-158.672 -295.469,-256.86 m 315.766,250.649 C 2134.633,817.695 2066.977,758.883 1898.34,612.273 m 303.953,264.239 C 2094.875,783.113 1987.438,689.738 1898.34,612.273 m 317.453,252.133 C 2122.148,782.98 2028.48,701.574 1915.238,603.113 m 300.555,261.293 C 2108.355,771.008 2000.918,677.613 1915.238,603.113 m 310.68,246.219 C 2137.445,772.426 2048.977,695.523 1938.93,599.875 m 286.988,249.457 C 2118.008,755.531 2010.098,661.727 1938.93,599.875 m 292.004,229.973 c -89.977,-78.211 -179.977,-156.442 -266.602,-231.75 m 266.602,231.75 c -66.532,-57.825 -133.063,-115.653 -266.602,-231.75 m 268.223,209.316 C 2154.594,739.645 2076.652,671.898 1991.422,597.805 m 241.133,209.609 C 2163.816,747.676 2095.102,687.918 1991.422,597.805 m 241.043,185.691 c -43.988,-38.25 -87.977,-76.5 -212.242,-184.523 m 212.242,184.523 C 2160.871,721.262 2089.273,659.004 2020.223,598.973 m 212.175,160.605 C 2164.336,700.406 2096.273,641.254 2047.313,598.684 m 185.085,160.894 c -53.753,-46.73 -107.507,-93.441 -185.085,-160.894 m 184.996,136.976 c -37.598,-32.691 -75.219,-65.383 -157.907,-137.293 m 157.907,137.293 c -53.461,-46.484 -106.922,-92.969 -157.907,-137.293 m 157.836,113.379 c -42.636,-37.082 -85.273,-74.141 -130.746,-113.672 m 130.746,113.672 c -35.008,-30.445 -70.019,-60.887 -130.746,-113.672 m 130.68,89.754 c -23.649,-20.543 -47.274,-41.086 -101.902,-88.582 m 101.902,88.582 c -34.313,-29.836 -68.625,-59.672 -101.902,-88.582 m 101.812,64.664 c -19.98,-17.371 -39.961,-34.742 -74.723,-64.957 m 74.723,64.957 c -26.773,-23.289 -53.574,-46.574 -74.723,-64.957 m 67.86,35.121 c -10.731,-9.316 -21.465,-18.652 -39.059,-33.953 m 39.059,33.953 c -14.895,-12.937 -29.766,-25.875 -39.059,-33.953" /></g><text
         id="text300"
         style="font-variant:normal;font-weight:bold;font-size:73.60351562px;font-family:Nunito;-inkscape-font-specification:Nunito-Bold;writing-mode:lr-tb;fill:#1e1e1e;fill-opacity:1;fill-rule:nonzero;stroke:none"
         transform="translate(1905.5977,717.65649)"><tspan
           id="tspan298"
           y="0"
           x="0 46.443817 102.5297">SD3</tspan></text>
<text
         id="text306"
         style="font-variant:normal;font-weight:bold;font-size:73.60351562px;font-family:Nunito;-inkscape-font-specification:Nunito-Bold;writing-mode:lr-tb;fill:#1e1e1e;fill-opacity:1;fill-rule:nonzero;stroke:none"
         transform="translate(2072.236,717.65649)"><tspan
           id="tspan302"
           y="0"
           x="0 40.261124 83.319183">and</tspan><tspan
           id="tspan304"
           y="99.363274"
           x="-111.51337 -70.148201 -30.843922 22.886644">FLUX</tspan></text>
<g
         id="g308"><path
           id="path310"
           style="fill:none;stroke:#a5d8ff;stroke-width:2.25;stroke-linecap:round;stroke-linejoin:miter;stroke-miterlimit:4;stroke-dasharray:none;stroke-opacity:1"
           d="m 2273.598,948.469 v 0 m 0,0 v 0 m -14.465,44.074 c 16.648,-19.168 33.301,-38.316 53.144,-61.129 m -53.144,61.129 c 18.539,-21.328 37.078,-42.66 53.144,-61.129 m -54.316,89.906 c 25.582,-29.406 51.144,-58.836 79.719,-91.687 m -79.719,91.687 c 16.832,-19.347 33.66,-38.718 79.719,-91.687 m -79.426,118.781 c 31.547,-36.273 63.09,-72.562 101.859,-117.16 m -101.859,117.16 c 27.066,-31.141 54.137,-62.258 101.859,-117.16 m -101.543,144.25 c 25.493,-29.34 51.008,-58.684 125.461,-144.34 m -125.461,144.34 c 40.926,-47.094 81.875,-94.211 125.461,-144.34 m -125.168,171.43 c 34.379,-39.535 68.758,-79.09 149.082,-171.496 m -149.082,171.496 c 39.801,-45.766 79.606,-91.555 149.082,-171.496 m -148.789,198.586 c 59.489,-68.426 118.957,-136.848 172.707,-198.676 m -172.707,198.676 c 52.379,-60.235 104.735,-120.465 172.707,-198.676 m -173.879,227.472 c 47.543,-54.695 95.086,-109.394 197.797,-227.539 m -197.797,227.539 c 54.114,-62.234 108.204,-124.468 197.797,-227.539 m -193.07,249.547 c 81.516,-93.781 163.012,-187.539 216.988,-249.636 m -216.988,249.636 c 69.547,-80.011 139.094,-160.019 216.988,-249.636 m -207.832,266.531 c 89.821,-103.34 179.641,-206.66 231.75,-266.602 m -231.75,266.602 c 86.219,-99.18 172.442,-198.36 231.75,-266.602 m -218.16,278.414 c 75.691,-87.093 151.402,-174.172 242.078,-278.48 m -242.078,278.48 c 53.887,-62.007 107.773,-123.996 242.078,-278.48 m -224.078,285.187 c 50.895,-58.547 101.789,-117.066 247.996,-285.277 m -247.996,285.277 c 53.234,-61.222 106.469,-122.468 247.996,-285.277 m -225.543,286.898 c 87.188,-100.285 174.375,-200.589 245.028,-281.882 m -245.028,281.882 c 78.301,-90.07 156.602,-180.16 245.028,-281.882 m -221.11,281.812 c 74.25,-85.43 148.524,-170.863 239.133,-275.105 m -239.133,275.105 c 52.402,-60.297 104.828,-120.598 239.133,-275.105 m -215.215,275.015 c 65.789,-75.687 131.602,-151.379 227.317,-261.492 m -227.317,261.492 c 87.953,-101.179 175.93,-202.386 227.317,-261.492 m -203.399,261.426 c 43.652,-50.219 87.277,-100.418 212.559,-244.531 m -212.559,244.531 c 78.457,-90.27 156.938,-180.539 212.559,-244.531 m -188.641,244.441 c 54.203,-62.348 108.426,-124.719 191.902,-220.746 m -191.902,220.746 c 51.051,-58.727 102.129,-117.473 191.902,-220.746 m -167.984,220.68 c 46.371,-53.348 92.766,-106.719 168.277,-193.59 m -168.277,193.59 c 35.934,-41.332 71.863,-82.688 168.277,-193.59 m -145.843,195.207 c 42.14,-48.465 84.261,-96.93 146.136,-168.117 m -146.136,168.117 c 38.562,-44.344 77.129,-88.715 146.136,-168.117 m -122.222,168.05 c 47.453,-54.586 94.882,-109.148 121.05,-139.25 m -121.05,139.25 c 32.336,-37.214 64.668,-74.406 121.05,-139.25 m -97.132,139.161 c 23.828,-27.383 47.632,-54.786 97.425,-112.071 m -97.425,112.071 c 34.359,-39.532 68.738,-79.063 97.425,-112.071 m -73.507,112.004 c 22.816,-26.234 45.629,-52.492 73.824,-84.914 m -73.824,84.914 c 15.527,-17.844 31.027,-35.707 73.824,-84.914 m -46.957,81.426 c 12.508,-14.356 24.996,-28.731 45.762,-52.629 m -45.762,52.629 c 16.984,-19.508 33.949,-39.039 45.762,-52.629 m -337.969,38.004 v 0 m 0,0 v 0 m 44.074,14.469 c -17.145,-14.895 -34.266,-29.789 -61.133,-53.145 m 61.133,53.145 c -13.566,-11.789 -27.133,-23.582 -61.133,-53.145 m 89.91,54.313 c -34.804,-30.262 -69.636,-60.524 -90,-78.231 m 90,78.231 c -28.257,-24.571 -56.539,-49.141 -90,-78.231 m 117.09,77.938 c -41.824,-36.36 -83.652,-72.719 -117.156,-101.856 m 117.156,101.856 c -32.262,-28.055 -64.527,-56.114 -117.156,-101.856 m 144.25,101.567 c -40.277,-35.036 -80.574,-70.067 -144.34,-125.485 m 144.34,125.485 c -38.07,-33.122 -76.141,-66.219 -144.34,-125.485 m 173.137,126.653 c -65.563,-56.993 -131.106,-113.985 -173.203,-150.571 m 173.203,150.571 c -63.449,-55.168 -126.922,-110.34 -173.203,-150.571 m 200.293,150.254 c -47.161,-40.992 -94.321,-81.988 -200.36,-174.172 m 200.36,174.172 c -56.203,-48.848 -112.411,-97.715 -200.36,-174.172 m 227.449,173.883 c -46.101,-40.074 -92.226,-80.168 -225.832,-196.312 m 225.832,196.312 c -89.277,-77.605 -178.558,-155.23 -225.832,-196.312 m 254.633,197.48 c -59.129,-51.391 -118.281,-102.801 -254.722,-221.398 m 254.722,221.398 c -69.457,-60.367 -138.914,-120.758 -254.722,-221.398 m 283.5,222.589 C 2463.59,1150.27 2385.223,1082.164 2260.055,973.352 m 281.879,245.046 c -92.61,-80.527 -185.243,-161.031 -281.879,-245.046 m 303.883,240.324 c -97.692,-84.938 -195.387,-169.875 -295.469,-256.86 m 295.469,256.86 c -92.903,-80.754 -185.782,-161.508 -295.469,-256.86 m 315.765,250.649 c -69.343,-60.301 -138.711,-120.578 -303.953,-264.238 m 303.953,264.238 C 2463.254,1102.277 2342.27,997.113 2280.281,943.227 m 317.453,252.132 C 2514.711,1123.156 2431.66,1050.977 2297.18,934.066 m 300.554,261.293 c -73.73,-64.101 -147.464,-128.203 -300.554,-261.293 m 310.679,246.219 c -76.726,-66.691 -153.472,-133.379 -286.988,-249.457 m 286.988,249.457 c -86.445,-75.129 -172.867,-150.254 -286.988,-249.457 m 292.004,229.973 c -79.691,-69.278 -159.387,-138.555 -266.602,-231.75 m 266.602,231.75 c -72.199,-62.778 -144.426,-125.528 -266.602,-231.75 m 268.223,209.316 c -94.68,-82.305 -189.336,-164.586 -241.133,-209.609 m 241.133,209.609 c -48.508,-42.164 -97.019,-84.328 -241.133,-209.609 m 241.043,185.691 c -66.375,-57.711 -132.773,-115.426 -212.242,-184.523 m 212.242,184.523 c -76.793,-66.781 -153.605,-133.535 -212.242,-184.523 m 212.176,160.605 c -71.324,-62.008 -142.629,-123.996 -185.086,-160.898 m 185.086,160.898 c -60.481,-52.582 -120.961,-105.14 -185.086,-160.898 m 184.996,136.98 c -49.949,-43.445 -99.922,-86.871 -157.906,-137.293 m 157.906,137.293 c -40.254,-35.008 -80.504,-69.996 -157.906,-137.293 m 157.84,113.375 c -27.61,-24.004 -55.239,-48.011 -130.75,-113.668 m 130.75,113.668 c -48.668,-42.32 -97.36,-84.621 -130.75,-113.668 m 130.679,89.754 c -40.027,-34.785 -80.031,-69.57 -101.902,-88.586 m 101.902,88.586 c -25.715,-22.343 -51.41,-44.711 -101.902,-88.586 m 101.812,64.668 c -16.468,-14.332 -32.937,-28.644 -74.722,-64.957 m 74.722,64.957 c -22.25,-19.351 -44.503,-38.699 -74.722,-64.957 m 67.859,35.121 c -12.082,-10.484 -24.14,-20.992 -39.058,-33.953 m 39.058,33.953 c -8.66,-7.515 -17.324,-15.05 -39.058,-33.953" /></g><g
         id="g312"><path
           id="path314"
           style="fill:none;stroke:#ffc9c9;stroke-width:2.25;stroke-linecap:round;stroke-linejoin:miter;stroke-miterlimit:4;stroke-dasharray:none;stroke-opacity:1"
           d="m 2745.566,947.473 v 0 m 0,0 v 0 m -14.464,44.074 c 21.238,-24.41 42.457,-48.824 53.144,-61.133 m -53.144,61.133 c 18.808,-21.645 37.617,-43.289 53.144,-61.133 m -54.316,89.91 c 27.136,-31.207 54.269,-62.414 79.718,-91.687 m -79.718,91.687 c 25.988,-29.902 51.976,-59.781 79.718,-91.687 m -79.425,118.777 c 26.461,-30.418 52.898,-60.84 101.859,-117.156 m -101.859,117.156 c 34.156,-39.281 68.308,-78.566 101.859,-117.156 m -101.543,144.25 c 28.664,-32.965 57.328,-65.926 125.457,-144.34 m -125.457,144.34 c 35.797,-41.176 71.57,-82.352 125.457,-144.34 m -126.652,173.137 c 52.449,-60.321 104.875,-120.621 150.57,-173.203 m -150.57,173.203 c 32.336,-37.192 64.668,-74.383 150.57,-173.203 m -150.254,200.293 c 64.352,-74.024 128.699,-148.071 174.172,-200.36 m -174.172,200.36 c 66.039,-75.957 132.051,-151.918 174.172,-200.36 m -175.363,229.16 c 61.875,-71.187 123.75,-142.355 199.281,-229.25 m -199.281,229.25 c 66.125,-76.07 132.23,-152.121 199.281,-229.25 m -194.535,251.235 c 60.301,-69.368 120.621,-138.758 218.453,-251.305 m -218.453,251.305 c 44.797,-51.528 89.594,-103.075 218.453,-251.305 m -209.297,268.223 c 64.442,-74.137 128.883,-148.274 233.215,-268.313 m -233.215,268.313 c 91.375,-105.141 182.746,-210.262 233.215,-268.313 m -219.645,280.102 c 59.758,-68.715 119.497,-137.449 243.563,-280.168 m -243.563,280.168 c 55.125,-63.403 110.25,-126.809 243.563,-280.168 m -227.027,288.586 c 65.23,-75.016 130.433,-150.032 250.945,-288.676 m -250.945,288.676 c 66.714,-76.727 133.402,-153.453 250.945,-288.676 m -228.488,290.293 c 88.898,-102.262 177.793,-204.547 247.996,-285.277 m -247.996,285.277 C 2887.07,1113.926 2979.23,1007.93 3042.93,934.645 m -224.078,285.21 c 87.097,-100.214 174.195,-200.406 242.078,-278.48 m -242.078,278.48 c 94.476,-108.695 188.976,-217.394 242.078,-278.48 m -218.16,278.391 c 64.82,-74.567 129.644,-149.129 230.261,-264.891 m -230.261,264.891 c 54.179,-62.301 108.335,-124.629 230.261,-264.891 m -206.347,264.824 c 77.379,-89.011 154.757,-178.019 215.507,-247.929 m -215.507,247.929 c 79.203,-91.125 158.425,-182.25 215.507,-247.929 m -191.589,247.863 c 51.527,-59.289 103.027,-118.555 194.851,-224.168 m -194.851,224.168 c 54.046,-62.192 108.089,-124.36 194.851,-224.168 m -170.933,224.074 c 55.621,-63.988 111.261,-127.977 171.226,-196.984 m -171.226,196.984 c 62.55,-71.953 125.101,-143.906 171.226,-196.984 m -148.793,198.605 c 50.961,-58.613 101.902,-117.222 149.086,-171.496 m -149.086,171.496 c 33.32,-38.34 66.645,-76.656 149.086,-171.496 m -125.168,171.43 c 25.918,-29.836 51.863,-59.649 123.996,-142.649 m -123.996,142.649 c 39.309,-45.227 78.637,-90.449 123.996,-142.649 m -100.078,142.559 c 33.367,-38.387 66.734,-76.77 100.371,-115.469 m -100.371,115.469 c 26.594,-30.602 53.211,-61.199 100.371,-115.469 m -76.453,115.403 c 19.012,-21.872 38.023,-43.766 76.77,-88.313 m -76.77,88.313 c 24.703,-28.418 49.41,-56.836 76.77,-88.313 m -51.368,86.535 c 12.036,-13.84 24.051,-27.699 50.172,-57.738 m -50.172,57.738 c 12.981,-14.941 25.965,-29.883 50.172,-57.738 m -338.062,41.535 v 0 m 0,0 v 0 m 45.765,15.953 c -15.793,-13.722 -31.589,-27.449 -62.82,-54.629 m 62.82,54.629 c -20.543,-17.863 -41.105,-35.73 -62.82,-54.629 m 89.91,54.317 c -32.511,-28.239 -65,-56.5 -91.687,-79.696 m 91.687,79.696 c -28.89,-25.114 -57.777,-50.223 -91.687,-79.696 m 118.777,79.403 c -39.734,-34.539 -79.469,-69.078 -117.156,-101.86 m 117.156,101.86 c -30.262,-26.305 -60.523,-52.606 -117.156,-101.86 m 144.246,101.567 c -45.695,-39.735 -91.395,-79.45 -144.336,-125.485 m 144.336,125.485 c -47.586,-41.379 -95.152,-82.735 -144.336,-125.485 m 173.137,126.653 c -44.977,-39.082 -89.953,-78.188 -173.203,-150.571 m 173.203,150.571 c -53.032,-46.078 -106.043,-92.18 -173.203,-150.571 m 200.293,150.278 c -44.348,-38.539 -88.696,-77.106 -200.383,-174.192 m 200.383,174.192 c -50.086,-43.535 -100.149,-87.075 -200.383,-174.192 m 227.472,173.879 c -80.461,-69.929 -160.918,-139.883 -227.543,-197.797 m 227.543,197.797 c -88.738,-77.129 -177.457,-154.262 -227.543,-197.797 m 256.344,198.989 C 2901.313,1147 2817.613,1074.234 2728.602,996.859 m 256.433,222.907 c -52.043,-45.246 -104.086,-90.473 -256.433,-222.907 m 285.211,224.079 c -97.583,-84.829 -195.141,-169.653 -281.879,-245.051 m 281.879,245.051 c -83.094,-72.227 -166.184,-144.454 -281.879,-245.051 m 305.57,241.785 c -111.891,-97.266 -223.785,-194.535 -298.867,-259.785 m 298.867,259.785 c -84.149,-73.145 -168.32,-146.317 -298.867,-259.785 M 3056.113,1210 C 2950.094,1117.863 2844.094,1025.703 2750.449,944.297 M 3056.113,1210 c -82.914,-72.066 -165.804,-144.133 -305.664,-265.703 m 319.164,253.598 C 2950.496,1094.352 2831.406,990.805 2765.66,933.68 m 303.953,264.215 C 2964.965,1106.93 2860.297,1015.938 2765.66,933.68 m 314.078,249.164 c -72.879,-63.36 -145.754,-126.699 -292.074,-253.914 m 292.074,253.914 C 3010.91,1123.016 2942.105,1063.211 2787.664,928.93 m 297.09,234.406 c -78.297,-68.039 -156.574,-136.078 -270,-234.699 m 270,234.699 c -58.094,-50.488 -116.188,-100.981 -270,-234.699 m 271.621,212.265 c -81.293,-70.672 -162.586,-141.32 -244.531,-212.554 m 244.531,212.554 c -90.406,-78.59 -180.832,-157.183 -244.531,-212.554 m 244.441,188.636 c -57.398,-49.882 -114.793,-99.785 -217.351,-188.953 m 217.351,188.953 c -61.695,-53.617 -123.39,-107.257 -217.351,-188.953 m 217.285,165.039 c -48.692,-42.324 -97.403,-84.648 -188.508,-163.847 m 188.508,163.847 c -60.547,-52.629 -121.074,-105.234 -188.508,-163.847 m 188.418,139.929 C 3022.566,1013.891 2958.98,958.633 2924.824,928.91 m 161.305,140.242 c -49.297,-42.863 -98.617,-85.726 -161.305,-140.242 m 161.235,116.324 c -36.786,-31.972 -73.551,-63.945 -134.145,-116.617 m 134.145,116.617 c -27.223,-23.672 -54.473,-47.339 -134.145,-116.617 m 134.055,92.699 c -25.696,-22.343 -51.41,-44.707 -105.278,-91.531 m 105.278,91.531 c -21.215,-18.449 -42.434,-36.902 -105.278,-91.531 m 105.211,67.613 c -16.515,-14.355 -33.031,-28.71 -78.121,-67.906 m 78.121,67.906 c -30.781,-26.753 -61.558,-53.503 -78.121,-67.906 m 72.946,39.555 c -11.61,-10.078 -23.219,-20.18 -44.145,-38.383 m 44.145,38.383 c -11.407,-9.899 -22.793,-19.82 -44.145,-38.383" /></g><text
         id="text322"
         style="font-variant:normal;font-weight:bold;font-size:70.09277344px;font-family:Nunito;-inkscape-font-specification:Nunito-Bold;writing-mode:lr-tb;fill:#1e1e1e;fill-opacity:1;fill-rule:nonzero;stroke:none"
         transform="translate(2751.8711,1003.3289)"><tspan
           id="tspan316"
           y="0"
           x="0 55.022827 114.11104 152.10132 193.10559 220.02121 269.99738">Qwen-VL</tspan><tspan
           id="tspan318"
           y="94.625031"
           x="93.996094 132.33684 173.34111">and</tspan><tspan
           id="tspan320"
           y="189.25392"
           x="47.171875 86.564011 125.95615 164.29691 210.06747">LLaVA</tspan></text>
<g
         id="g324"><path
           id="path326"
           style="fill:none;stroke:#a5d8ff;stroke-width:2.25;stroke-linecap:round;stroke-linejoin:miter;stroke-miterlimit:4;stroke-dasharray:none;stroke-opacity:1"
           d="m 3132.359,952.539 v 0 m 0,0 v 0 m -14.464,44.078 c 12.304,-14.156 24.589,-28.285 53.144,-61.133 m -53.144,61.133 c 16.109,-18.543 32.218,-37.058 53.144,-61.133 m -54.316,89.911 c 21.668,-24.911 43.336,-49.84 79.718,-91.688 m -79.718,91.688 c 31.05,-35.711 62.101,-71.418 79.718,-91.688 m -79.425,118.777 c 22.613,-25.988 45.203,-51.976 101.859,-117.16 m -101.859,117.16 c 27.855,-32.043 55.711,-64.082 101.859,-117.16 m -101.543,144.25 c 25.152,-28.937 50.309,-57.871 125.457,-144.34 m -125.457,144.34 c 31.16,-35.844 62.324,-71.687 125.457,-144.34 m -126.652,173.137 c 42.437,-48.801 84.847,-97.601 150.57,-173.203 m -150.57,173.203 c 32.828,-37.73 65.633,-75.484 150.57,-173.203 m -150.254,200.293 c 54.652,-62.887 109.328,-125.773 174.172,-200.359 m -174.172,200.359 c 65.723,-75.598 131.445,-151.219 174.172,-200.359 m -175.363,229.16 c 67.32,-77.422 134.617,-154.844 199.281,-229.25 m -199.281,229.25 c 58.769,-67.59 117.515,-135.18 199.281,-229.25 m -194.535,251.234 c 44.957,-51.707 89.91,-103.434 218.453,-251.305 m -218.453,251.305 c 85.769,-98.664 171.562,-197.348 218.453,-251.305 m -209.297,268.223 c 46.848,-53.887 93.691,-107.773 233.215,-268.312 m -233.215,268.312 c 53.258,-61.266 106.516,-122.555 233.215,-268.312 m -219.645,280.105 c 62.008,-71.328 124.043,-142.676 243.563,-280.172 m -243.563,280.172 c 91.618,-105.391 183.239,-210.781 243.563,-280.172 m -227.027,288.586 c 92.003,-105.816 184.007,-211.66 250.945,-288.676 m -250.945,288.676 c 77.332,-88.941 154.668,-177.91 250.945,-288.676 m -228.488,290.297 c 55.257,-63.586 110.543,-127.172 247.992,-285.281 m -247.992,285.281 c 68.285,-78.57 136.597,-157.14 247.992,-285.281 m -224.074,285.211 c 51.996,-59.828 103.992,-119.652 242.074,-278.481 m -242.074,278.481 c 94.296,-108.473 188.593,-216.945 242.074,-278.481 m -218.156,278.391 c 59.332,-68.266 118.687,-136.527 230.261,-264.891 m -230.261,264.891 c 69.882,-80.391 139.789,-160.809 230.261,-264.891 m -206.347,264.825 c 45.183,-51.977 90.382,-103.973 215.507,-247.93 m -215.507,247.93 c 63.226,-72.743 126.472,-145.508 215.507,-247.93 m -191.589,247.863 c 56.589,-65.117 113.175,-130.207 194.851,-224.168 m -194.851,224.168 c 66.105,-76.051 132.21,-152.101 194.851,-224.168 m -170.933,224.078 c 51.324,-59.062 102.667,-118.105 171.226,-196.988 m -171.226,196.988 c 35.347,-40.66 70.695,-81.339 171.226,-196.988 m -148.793,198.606 c 35.301,-40.61 70.606,-81.223 149.086,-171.493 m -149.086,171.493 c 48.758,-56.09 97.516,-112.161 149.086,-171.493 m -125.168,171.426 c 39.441,-45.383 78.906,-90.765 123.996,-142.648 m -123.996,142.648 c 34.828,-40.051 69.637,-80.101 123.996,-142.648 m -100.078,142.558 c 39.848,-45.832 79.715,-91.687 100.371,-115.468 m -100.371,115.468 c 27.785,-31.949 55.574,-63.898 100.371,-115.468 m -76.453,115.402 c 29.316,-33.731 58.656,-67.457 76.77,-88.313 m -76.77,88.313 c 17.977,-20.699 35.953,-41.379 76.77,-88.313 m -51.368,86.536 c 12.825,-14.762 25.649,-29.52 50.172,-57.735 m -50.172,57.735 c 13.25,-15.258 26.504,-30.512 50.172,-57.735 m -338.062,41.531 v 0 m 0,0 v 0 m 45.765,15.954 c -17.683,-15.368 -35.367,-30.735 -62.82,-54.629 m 62.82,54.629 c -14.488,-12.598 -28.957,-25.176 -62.82,-54.629 m 89.91,54.316 c -30.957,-26.891 -61.894,-53.797 -91.687,-79.695 m 91.687,79.695 c -25.492,-22.141 -50.984,-44.305 -91.687,-79.695 m 118.777,79.402 c -38.383,-33.367 -76.793,-66.758 -117.156,-101.859 m 117.156,101.859 c -44.82,-38.973 -89.66,-77.941 -117.156,-101.859 m 144.246,101.566 c -41.242,-35.867 -82.508,-71.73 -144.336,-125.484 m 144.336,125.484 c -33.481,-29.117 -66.957,-58.23 -144.336,-125.484 m 173.137,126.652 c -40.231,-34.965 -80.438,-69.93 -173.203,-150.566 m 173.203,150.566 c -68.086,-59.172 -136.149,-118.348 -173.203,-150.566 m 200.293,150.277 c -78.684,-68.402 -157.364,-136.801 -200.383,-174.195 m 200.383,174.195 c -78.684,-68.402 -157.387,-136.824 -200.383,-174.195 m 227.472,173.879 c -49.339,-42.887 -98.707,-85.793 -227.543,-197.797 m 227.543,197.797 c -90.988,-79.086 -181.98,-158.176 -227.543,-197.797 m 256.344,198.988 c -101.902,-88.582 -203.805,-177.141 -256.433,-222.906 m 256.433,222.906 c -78.48,-68.219 -156.961,-136.437 -256.433,-222.906 m 285.21,224.078 c -81.226,-70.606 -162.449,-141.211 -281.878,-245.047 m 281.878,245.047 c -58.32,-50.695 -116.64,-101.41 -281.878,-245.047 m 305.57,241.785 c -96.68,-84.039 -193.363,-168.078 -298.867,-259.785 m 298.867,259.785 c -84.734,-73.644 -169.469,-147.308 -298.867,-259.785 m 317.476,252.109 c -72.359,-62.91 -144.718,-125.796 -305.664,-265.699 m 305.664,265.699 c -86.672,-75.328 -173.34,-150.679 -305.664,-265.699 m 319.164,253.594 c -84.804,-73.707 -169.605,-147.441 -303.953,-264.215 m 303.953,264.215 c -61.515,-53.481 -123.054,-106.965 -303.953,-264.215 m 314.078,249.164 c -69.48,-60.39 -138.961,-120.781 -292.074,-253.914 m 292.074,253.914 c -106.558,-92.633 -213.097,-185.242 -292.074,-253.914 m 297.09,234.406 c -69.188,-60.121 -138.352,-120.261 -270,-234.695 m 270,234.695 c -82.508,-71.707 -164.992,-143.414 -270,-234.695 m 271.621,212.262 c -61.379,-53.348 -122.758,-106.696 -244.531,-212.555 m 244.531,212.555 c -61.449,-53.391 -122.871,-106.805 -244.531,-212.555 m 244.441,188.641 C 3400.941,1059.344 3328.832,996.66 3255.727,933.098 m 217.351,188.957 c -43.738,-38.028 -87.504,-76.075 -217.351,-188.957 m 217.285,165.039 c -41.469,-36.047 -82.957,-72.114 -188.508,-163.848 m 188.508,163.848 c -39.446,-34.27 -78.864,-68.559 -188.508,-163.848 m 188.418,139.93 c -43.067,-37.442 -86.133,-74.883 -161.305,-140.242 m 161.305,140.242 c -42.547,-36.992 -85.098,-73.981 -161.305,-140.242 m 161.235,116.324 c -36.653,-31.86 -73.325,-63.742 -134.145,-116.617 m 134.145,116.617 c -49.7,-43.199 -99.403,-86.422 -134.145,-116.617 m 134.055,92.699 c -32.332,-28.102 -64.664,-56.203 -105.278,-91.531 m 105.278,91.531 c -24.481,-21.285 -48.981,-42.594 -105.278,-91.531 m 105.211,67.613 c -25.265,-21.961 -50.511,-43.918 -78.121,-67.906 m 78.121,67.906 c -25.988,-22.59 -51.976,-45.18 -78.121,-67.906 m 72.946,39.558 c -16.875,-14.648 -33.727,-29.32 -44.145,-38.387 m 44.145,38.387 c -9.426,-8.191 -18.832,-16.383 -44.145,-38.387" /></g><text
         id="text332"
         style="font-variant:normal;font-weight:bold;font-size:68.86230469px;font-family:Nunito;-inkscape-font-specification:Nunito-Bold;writing-mode:lr-tb;fill:#1e1e1e;fill-opacity:1;fill-rule:nonzero;stroke:none"
         transform="translate(3183.5586,1009.6516)"><tspan
           id="tspan328"
           y="0"
           x="0 54.056908 112.10783 149.4312 189.71565">Qwen-</tspan><tspan
           id="tspan330"
           y="92.964867"
           x="-53.988255 -2.7546988 37.116577 78.43396 95.993843">Audio</tspan></text>
<text
         id="text338"
         style="font-variant:normal;font-weight:bold;font-size:68.86230469px;font-family:Nunito;-inkscape-font-specification:Nunito-Bold;writing-mode:lr-tb;fill:#1e1e1e;fill-opacity:1;fill-rule:nonzero;stroke:none"
         transform="translate(3337.8788,1102.6165)"><tspan
           id="tspan334"
           y="0"
           x="0 37.667683 77.952126">and</tspan><tspan
           id="tspan336"
           y="92.968727"
           x="-186.41005 -135.58968 -114.51781 -88.969894 -62.320179 -24.652498 20.108 58.877476">UltraVox</tspan></text>
<g
         id="g340"><path
           id="path342"
           style="fill:none;stroke:#b2f2bb;stroke-width:2.25;stroke-linecap:round;stroke-linejoin:miter;stroke-miterlimit:4;stroke-dasharray:none;stroke-opacity:1"
           d="m 3521.813,949.07 v 0 m 0,0 v 0 m -14.469,44.078 c 13.566,-15.593 27.113,-31.183 53.144,-61.132 m -53.144,61.132 c 16.988,-19.531 33.953,-39.058 53.144,-61.132 m -54.316,89.91 c 25.766,-29.633 51.547,-59.289 79.719,-91.688 m -79.719,91.688 c 28.848,-33.188 57.715,-66.375 79.719,-91.688 m -79.426,118.778 c 37.394,-42.996 74.769,-85.973 101.859,-117.157 m -101.859,117.157 c 28.351,-32.578 56.68,-65.184 101.859,-117.157 m -101.543,144.246 c 31.68,-36.449 63.383,-72.898 125.461,-144.335 m -125.461,144.335 c 31.5,-36.246 63.024,-72.496 125.461,-144.335 m -126.652,173.136 c 49.226,-56.609 98.437,-113.242 150.566,-173.207 m -150.566,173.207 c 52.648,-60.547 105.277,-121.094 150.566,-173.207 m -150.254,200.297 c 41.063,-47.25 82.125,-94.476 174.172,-200.363 m -174.172,200.363 c 36.317,-41.762 72.61,-83.543 174.172,-200.363 m -175.363,229.164 c 68.309,-78.594 136.621,-157.164 199.281,-229.254 m -199.281,229.254 c 61.941,-71.258 123.883,-142.516 199.281,-229.254 m -194.535,251.234 c 76.027,-87.457 152.055,-174.914 218.453,-251.3 m -218.453,251.3 c 58.703,-67.543 117.43,-135.089 218.453,-251.3 m -209.293,268.222 c 71.571,-82.351 143.164,-164.699 233.211,-268.312 m -233.211,268.312 c 71.055,-81.765 142.133,-163.531 233.211,-268.312 m -219.644,280.101 c 60.613,-69.726 121.23,-139.453 243.562,-280.168 m -243.562,280.168 c 81.043,-93.218 162.089,-186.457 243.562,-280.168 m -227.027,288.582 c 99.406,-114.32 198.789,-228.668 250.945,-288.675 m -250.945,288.675 c 60.168,-69.187 120.308,-138.394 250.945,-288.675 m -228.488,290.296 c 94.769,-109.035 189.562,-218.046 247.996,-285.277 m -247.996,285.277 c 90.922,-104.578 181.844,-209.183 247.996,-285.277 m -224.078,285.211 c 65.656,-75.555 131.332,-151.09 242.078,-278.484 m -242.078,278.484 c 94.363,-108.586 188.75,-217.148 242.078,-278.484 m -218.16,278.394 c 86.644,-99.676 173.293,-199.351 230.265,-264.894 m -230.265,264.894 c 46.597,-53.597 93.195,-107.191 230.265,-264.894 m -206.347,264.824 c 59.914,-68.914 119.812,-137.832 215.504,-247.926 m -215.504,247.926 c 85.093,-97.895 170.187,-195.793 215.504,-247.926 m -191.59,247.859 c 47.5,-54.652 94.972,-109.281 194.851,-224.168 m -194.851,224.168 c 65.722,-75.621 131.469,-151.246 194.851,-224.168 m -172.418,225.79 c 42.504,-48.895 85.004,-97.786 172.711,-198.7 m -172.711,198.7 c 44.934,-51.684 89.844,-103.368 172.711,-198.7 m -148.793,198.61 c 56.903,-65.453 113.805,-130.907 149.086,-171.496 m -149.086,171.496 c 49.93,-57.422 99.856,-114.864 149.086,-171.496 m -125.168,171.429 c 35.934,-41.336 71.864,-82.668 123.996,-142.652 m -123.996,142.652 c 44.192,-50.851 88.403,-101.679 123.996,-142.652 m -100.078,142.559 c 37.282,-42.883 74.543,-85.747 100.371,-115.469 m -100.371,115.469 c 22.453,-25.805 44.887,-51.614 100.371,-115.469 m -76.453,115.402 c 15.93,-18.336 31.86,-36.652 76.77,-88.312 m -76.77,88.312 c 16.918,-19.461 33.84,-38.945 76.77,-88.312 m -51.367,86.535 c 18.988,-21.871 38,-43.719 50.175,-57.735 m -50.175,57.735 c 14.937,-17.188 29.902,-34.403 50.175,-57.735 m -338.246,41.739 v 0 m 0,0 v 0 m 45.766,15.929 c -22.207,-19.304 -44.438,-38.609 -62.82,-54.609 m 62.82,54.609 c -19.957,-17.347 -39.914,-34.695 -62.82,-54.609 m 89.91,54.316 c -25.356,-22.05 -50.735,-44.101 -90,-78.234 m 90,78.234 c -20.34,-17.683 -40.68,-35.371 -90,-78.234 m 117.113,77.941 c -27.066,-23.535 -54.133,-47.046 -117.18,-101.855 m 117.18,101.855 c -36.203,-31.476 -72.406,-62.933 -117.18,-101.855 m 144.27,101.562 c -37.168,-32.308 -74.317,-64.597 -144.336,-125.48 m 144.336,125.48 c -38.813,-33.75 -77.625,-67.476 -144.336,-125.48 m 173.113,126.652 c -57.035,-49.589 -114.097,-99.179 -173.203,-150.57 m 173.203,150.57 c -62.797,-54.586 -125.594,-109.195 -173.203,-150.57 m 200.293,150.277 c -69.164,-60.144 -138.328,-120.261 -200.363,-174.195 m 200.363,174.195 c -56.496,-49.117 -112.992,-98.234 -200.363,-174.195 m 227.453,173.879 c -80.145,-69.66 -160.289,-139.34 -227.543,-197.797 m 227.543,197.797 c -53.594,-46.598 -107.211,-93.195 -227.543,-197.797 m 256.344,198.992 c -93.758,-81.519 -187.516,-163.015 -256.41,-222.91 m 256.41,222.91 c -58.973,-51.281 -117.946,-102.535 -256.41,-222.91 m 285.187,224.078 c -109.125,-94.859 -218.25,-189.742 -281.879,-245.047 m 281.879,245.047 c -98.797,-85.906 -197.617,-171.808 -281.879,-245.047 m 305.594,241.786 c -66.848,-58.094 -133.695,-116.215 -298.867,-259.786 m 298.867,259.786 c -72.719,-63.18 -145.418,-126.383 -298.867,-259.786 m 317.453,252.114 c -93.578,-81.36 -187.156,-162.7 -305.641,-265.703 m 305.641,265.703 C 3711.281,1106.707 3590.391,1001.609 3526.535,946.102 m 320.852,255.058 c -94.254,-81.945 -188.528,-163.867 -305.664,-265.703 m 305.664,265.703 c -66.555,-57.848 -133.11,-115.695 -305.664,-265.703 m 314.078,249.168 C 3748.992,1091.789 3642.207,998.953 3563.727,930.734 m 292.074,253.891 c -94.727,-82.328 -189.449,-164.68 -292.074,-253.891 m 298.777,235.891 C 3782.789,1097.301 3703.047,1028 3590.816,930.441 m 271.688,236.184 c -58.41,-50.785 -116.816,-101.566 -271.688,-236.184 m 271.622,212.266 c -50.469,-43.875 -100.958,-87.75 -244.532,-212.559 m 244.532,212.559 c -87.122,-75.734 -174.219,-151.449 -244.532,-212.559 m 244.465,188.641 C 3789.156,1055.137 3715.941,991.508 3645,929.832 m 217.371,188.957 C 3805.355,1069.223 3748.34,1019.676 3645,929.832 m 217.281,165.039 c -47.789,-41.559 -95.582,-83.094 -188.484,-163.844 m 188.484,163.844 C 3791.34,1033.199 3720.395,971.527 3673.797,931.027 m 188.418,139.926 c -45.317,-39.375 -90.61,-78.75 -161.328,-140.242 m 161.328,140.242 c -56.836,-49.41 -113.672,-98.82 -161.328,-140.242 m 161.238,116.324 c -42.48,-36.922 -84.961,-73.867 -134.148,-116.617 m 134.148,116.617 c -44.98,-39.105 -89.98,-78.211 -134.148,-116.617 m 134.078,92.699 c -26.551,-23.082 -53.098,-46.144 -105.278,-91.527 m 105.278,91.527 c -25.649,-22.297 -51.301,-44.594 -105.278,-91.527 m 105.188,67.609 c -30.418,-26.457 -60.863,-52.918 -78.098,-67.902 m 78.098,67.902 c -19.461,-16.941 -38.945,-33.859 -78.098,-67.902 m 72.922,39.555 c -11.539,-10.059 -23.105,-20.094 -44.144,-38.387 m 44.144,38.387 c -11.473,-9.993 -22.973,-19.981 -44.144,-38.387" /></g><text
         id="text346"
         style="font-variant:normal;font-weight:bold;font-size:71.59082031px;font-family:Nunito;-inkscape-font-specification:Nunito-Bold;writing-mode:lr-tb;fill:#1e1e1e;fill-opacity:1;fill-rule:nonzero;stroke:none"
         transform="translate(3518.5469,1100.2195)"><tspan
           id="tspan344"
           y="0"
           x="0 25.343151 64.503326 106.38396 147.83504 182.77136 213.84178 259.8031 287.29398">Janus-Pro</tspan></text>
<g
         id="g348"><path
           id="path350"
           style="fill:none;stroke:#1e1e1e;stroke-width:4.5;stroke-linecap:round;stroke-linejoin:miter;stroke-miterlimit:4;stroke-dasharray:none;stroke-opacity:1"
           d="m 1300.141,1286.184 c 455.894,-0.7 2279.453,-3.465 2735.324,-4.164 m -2735.324,4.164 c 455.894,-0.7 2279.453,-3.465 2735.324,-4.164" /></g><g
         id="g352"><path
           id="path354"
           style="fill:none;stroke:#1e1e1e;stroke-width:4.5;stroke-linecap:round;stroke-linejoin:miter;stroke-miterlimit:4;stroke-dasharray:none;stroke-opacity:1"
           d="m 3982.637,1301.324 c 15.613,-5.691 31.226,-11.406 52.828,-19.304 m -52.828,19.304 c 14.894,-5.441 29.789,-10.886 52.828,-19.304" /></g><g
         id="g356"><path
           id="path358"
           style="fill:none;stroke:#1e1e1e;stroke-width:4.5;stroke-linecap:round;stroke-linejoin:miter;stroke-miterlimit:4;stroke-dasharray:none;stroke-opacity:1"
           d="m 3982.59,1262.852 c 15.613,5.668 31.254,11.316 52.875,19.168 m -52.875,-19.168 c 14.894,5.398 29.812,10.8 52.875,19.168" /></g><g
         id="g360"><path
           id="path362"
           style="fill:none;stroke:#a5d8ff;stroke-width:2.25;stroke-linecap:round;stroke-linejoin:miter;stroke-miterlimit:4;stroke-dasharray:none;stroke-opacity:1"
           d="m 2279.328,617.102 v 0 m 0,0 v 0 m -14.465,44.078 c 17.797,-20.473 35.594,-40.95 53.145,-61.133 m -53.145,61.133 c 18.133,-20.879 36.293,-41.739 53.145,-61.133 m -54.317,89.91 c 19.938,-22.949 39.895,-45.875 79.719,-91.687 m -79.719,91.687 c 16.989,-19.527 33.977,-39.059 79.719,-91.687 m -79.426,118.777 c 24.887,-28.617 49.746,-57.238 101.86,-117.156 m -101.86,117.156 c 24.434,-28.102 48.871,-56.203 101.86,-117.156 m -101.543,144.246 c 35.66,-41.039 71.347,-82.078 125.457,-144.336 m -125.457,144.336 c 29.902,-34.403 59.804,-68.805 125.457,-144.336 m -125.164,171.426 c 59.578,-68.536 119.16,-137.067 149.082,-171.493 m -149.082,171.493 c 34.176,-39.305 68.332,-78.614 149.082,-171.493 m -148.793,198.582 c 51.707,-59.441 103.39,-118.91 172.711,-198.671 m -172.711,198.671 c 54.992,-63.246 110.004,-126.515 172.711,-198.671 m -173.879,227.472 c 77.488,-89.144 154.98,-178.265 197.797,-227.543 m -197.797,227.543 c 74.902,-86.176 149.828,-172.347 197.797,-227.543 m -193.071,249.551 c 44.055,-50.672 88.11,-101.363 216.989,-249.641 m -216.989,249.641 c 71.727,-82.508 143.457,-165.039 216.989,-249.641 M 2277.598,866.02 c 91.711,-105.5 183.418,-211.004 231.75,-266.602 m -231.75,266.602 c 51.793,-59.579 103.59,-119.161 231.75,-266.602 m -218.16,278.414 c 93.871,-108 187.738,-216 242.078,-278.48 m -242.078,278.48 c 76.859,-88.422 153.718,-176.828 242.078,-278.48 m -224.078,285.187 c 92.046,-105.863 184.07,-211.727 247.996,-285.277 M 2309.188,884.539 C 2399.48,780.68 2489.773,676.816 2557.184,599.262 M 2331.641,886.16 c 80.957,-93.129 161.89,-186.234 245.027,-281.883 M 2331.641,886.16 c 70.492,-81.094 140.988,-162.183 245.027,-281.883 M 2355.559,886.09 c 62.597,-72.024 125.191,-144.024 239.132,-275.106 M 2355.559,886.09 c 63.789,-73.395 127.597,-146.789 239.132,-275.106 M 2379.477,886 c 89.054,-102.465 178.132,-204.93 227.316,-261.496 M 2379.477,886 c 48.937,-56.293 97.875,-112.59 227.316,-261.496 m -203.398,261.43 c 84.171,-96.84 168.343,-193.68 212.558,-244.532 m -212.558,244.532 c 56.003,-64.442 112.027,-128.879 212.558,-244.532 m -188.64,244.442 c 41.757,-48.039 83.519,-96.074 191.902,-220.746 m -191.902,220.746 c 46.035,-52.942 92.07,-105.906 191.902,-220.746 M 2451.23,885.777 c 48.196,-55.465 96.411,-110.902 168.278,-193.589 M 2451.23,885.777 c 59.196,-68.086 118.372,-136.195 168.278,-193.589 m -145.844,195.207 c 49.34,-56.743 98.684,-113.512 146.137,-168.118 m -146.137,168.118 c 39.012,-44.864 78.004,-89.731 146.137,-168.118 m -122.223,168.051 c 27.856,-32.062 55.711,-64.101 121.051,-139.254 m -121.051,139.254 c 47.77,-54.969 95.535,-109.914 121.051,-139.254 m -97.133,139.164 c 35.664,-41.015 71.305,-82.035 97.426,-112.074 m -97.426,112.074 c 35.777,-41.152 71.551,-82.304 97.426,-112.074 m -73.508,112.008 c 22.77,-26.192 45.539,-52.383 73.824,-84.918 m -73.824,84.918 c 23.691,-27.25 47.387,-54.496 73.824,-84.918 m -46.957,81.43 c 9.223,-10.598 18.426,-21.196 45.762,-52.629 m -45.762,52.629 c 17.278,-19.868 34.559,-39.735 45.762,-52.629 m -337.973,38.004 v 0 m 0,0 v 0 m 44.078,14.468 c -13.859,-12.039 -27.695,-24.078 -61.132,-53.148 m 61.132,53.148 c -18.335,-15.929 -36.652,-31.863 -61.132,-53.148 m 89.91,54.316 c -28.461,-24.75 -56.946,-49.5 -90,-78.23 m 90,78.23 c -24.008,-20.879 -48.012,-41.738 -90,-78.23 m 117.09,77.937 c -36.2,-31.476 -72.403,-62.953 -117.157,-101.855 m 117.157,101.855 c -35.368,-30.757 -70.739,-61.492 -117.157,-101.855 m 144.246,101.562 c -47.722,-41.511 -95.464,-83 -144.335,-125.48 m 144.335,125.48 c -39.261,-34.152 -78.546,-68.285 -144.335,-125.48 m 173.136,126.652 c -34.715,-30.195 -69.457,-60.39 -173.203,-150.57 m 173.203,150.57 c -54.988,-47.812 -109.98,-95.601 -173.203,-150.57 m 200.293,150.254 c -49.883,-43.356 -99.785,-86.738 -200.363,-174.172 m 200.363,174.172 C 2396.465,827.141 2329.91,769.293 2262.633,710.793 m 227.453,173.879 C 2413.969,818.5 2337.852,752.352 2264.254,688.359 m 225.832,196.313 C 2434.648,836.477 2379.23,788.305 2264.254,688.359 m 254.633,197.485 C 2448.957,825.07 2379.051,764.297 2264.164,664.441 m 254.723,221.403 C 2441.531,818.613 2364.199,751.383 2264.164,664.441 m 283.5,222.594 c -67.387,-58.59 -134.773,-117.156 -281.879,-245.047 m 281.879,245.047 c -98.82,-85.906 -197.641,-171.808 -281.879,-245.047 m 303.883,240.324 C 2452.984,780.879 2336.301,679.449 2274.199,625.449 m 295.469,256.863 C 2478.297,802.863 2386.902,723.414 2274.199,625.449 m 315.766,250.653 c -94.656,-82.305 -189.336,-164.59 -303.953,-264.243 m 303.953,264.243 C 2509.977,806.574 2429.988,737.027 2286.012,611.859 m 317.453,252.137 C 2488.602,764.141 2373.719,664.262 2302.91,602.703 m 300.555,261.293 C 2502.148,775.91 2400.809,687.82 2302.91,602.703 m 310.68,246.219 C 2543.75,788.215 2473.887,727.488 2326.602,599.465 M 2613.59,848.922 C 2504.781,754.352 2395.992,659.785 2326.602,599.465 m 292.003,229.973 C 2513.891,738.402 2409.156,647.367 2352.004,597.688 m 266.601,231.75 C 2554.348,773.59 2490.109,717.746 2352.004,597.688 m 268.223,209.316 c -50.266,-43.695 -100.532,-87.391 -241.133,-209.609 m 241.133,209.609 C 2557.52,752.484 2494.813,697.992 2379.094,597.395 m 241.043,185.691 C 2542.152,715.27 2464.145,647.477 2407.895,598.562 m 212.242,184.524 C 2547.934,720.312 2475.73,657.535 2407.895,598.562 m 212.175,160.606 c -48.984,-42.594 -97.965,-85.164 -185.086,-160.898 m 185.086,160.898 c -43.156,-37.531 -86.312,-75.039 -185.086,-160.898 m 184.996,136.98 c -36.519,-31.77 -73.058,-63.516 -157.906,-137.293 M 2619.98,735.25 c -34.695,-30.172 -69.414,-60.344 -157.906,-137.293 m 157.84,113.375 c -46.328,-40.273 -92.633,-80.527 -130.75,-113.668 m 130.75,113.668 c -51.168,-44.48 -102.309,-88.941 -130.75,-113.668 m 130.68,89.75 c -29.969,-26.031 -59.918,-52.086 -101.903,-88.582 m 101.903,88.582 c -33.66,-29.269 -67.321,-58.519 -101.903,-88.582 m 101.813,64.668 c -22.703,-19.758 -45.426,-39.488 -74.723,-64.961 m 74.723,64.961 c -29.34,-25.516 -58.68,-51.031 -74.723,-64.961 m 67.86,35.125 c -9.743,-8.461 -19.461,-16.922 -39.059,-33.953 m 39.059,33.953 c -15.164,-13.187 -30.328,-26.348 -39.059,-33.953" /></g><text
         id="text366"
         style="font-variant:normal;font-weight:bold;font-size:77.5390625px;font-family:Nunito;-inkscape-font-specification:Nunito-Bold;writing-mode:lr-tb;fill:#1e1e1e;fill-opacity:1;fill-rule:nonzero;stroke:none"
         transform="translate(2298.8203,768.22167)"><tspan
           id="tspan364"
           y="0"
           x="0 50.012695 94.675194 132.51425 200.51602 245.17851">Cosmos</tspan></text>
<g
         id="g368"><path
           id="path370"
           style="fill:none;stroke:#ffd43b;stroke-width:2.25;stroke-linecap:round;stroke-linejoin:miter;stroke-miterlimit:4;stroke-dasharray:none;stroke-opacity:1"
           d="m 1523.633,612.688 v 0 m 0,0 v 0 m -14.469,44.078 c 14.309,-16.446 28.621,-32.918 53.145,-61.133 m -53.145,61.133 c 17.863,-20.543 35.731,-41.086 53.145,-61.133 m -54.317,89.91 c 16.36,-18.809 32.715,-37.641 79.719,-91.688 m -79.719,91.688 c 23.403,-26.91 46.801,-53.82 79.719,-91.688 m -79.426,118.778 c 24.84,-28.551 49.68,-57.125 101.86,-117.156 m -101.86,117.156 c 29.903,-34.379 59.805,-68.781 101.86,-117.156 m -101.543,144.246 c 26.82,-30.848 53.64,-61.696 125.461,-144.336 m -125.461,144.336 c 44.257,-50.895 88.515,-101.813 125.461,-144.336 M 1507.41,768.523 C 1559.879,708.18 1612.324,647.832 1657.977,595.32 M 1507.41,768.523 c 55.395,-63.718 110.789,-127.418 150.567,-173.203 m -150.254,200.293 c 63.765,-73.371 127.554,-146.746 174.172,-200.363 M 1507.723,795.613 C 1566.02,728.562 1624.32,661.492 1681.895,595.25 M 1506.531,824.414 C 1576.73,743.66 1646.93,662.91 1705.813,595.16 m -199.282,229.254 c 73.102,-84.105 146.203,-168.187 199.282,-229.254 m -194.536,251.235 c 52.336,-60.207 104.696,-120.442 218.453,-251.301 m -218.453,251.301 c 68.696,-79.02 137.387,-158.04 218.453,-251.301 m -209.292,268.222 c 67.722,-77.918 135.449,-155.836 233.21,-268.312 m -233.21,268.312 c 89.277,-102.734 178.558,-205.449 233.21,-268.312 m -219.644,280.101 c 91.82,-105.613 183.644,-211.23 243.562,-280.167 m -243.562,280.167 c 85.613,-98.48 171.223,-196.964 243.562,-280.167 M 1550.539,883.52 c 66.106,-76.047 132.211,-152.075 250.945,-288.672 M 1550.539,883.52 c 98.531,-113.332 197.035,-226.641 250.945,-288.672 m -228.488,290.293 c 71.078,-81.766 142.176,-163.551 247.996,-285.278 m -247.996,285.278 c 71.863,-82.664 143.731,-165.352 247.996,-285.278 m -224.078,285.211 c 57.531,-66.195 115.063,-132.367 242.078,-278.484 m -242.078,278.484 c 62.234,-71.617 124.492,-143.234 242.078,-278.484 m -218.16,278.394 C 1676.723,820.68 1732.633,756.375 1851.098,620.09 M 1620.832,884.984 C 1703.18,790.258 1785.531,695.535 1851.098,620.09 M 1644.75,884.918 c 52.785,-60.73 105.57,-121.457 215.504,-247.93 m -215.504,247.93 c 69.387,-79.832 138.777,-159.66 215.504,-247.93 m -191.59,247.86 c 55.531,-63.899 111.063,-127.778 194.852,-224.168 m -194.852,224.168 c 71.621,-82.395 143.238,-164.789 194.852,-224.168 m -170.934,224.078 c 65.543,-75.399 131.086,-150.817 171.227,-196.988 m -171.227,196.988 c 37.148,-42.727 74.297,-85.453 171.227,-196.988 m -148.793,198.609 c 32.601,-37.508 65.207,-74.992 149.086,-171.496 m -149.086,171.496 c 47.226,-54.317 94.433,-108.629 149.086,-171.496 m -125.168,171.429 c 26.593,-30.578 53.168,-61.179 123.996,-142.652 m -123.996,142.652 c 31.769,-36.562 63.539,-73.105 123.996,-142.652 m -100.078,142.563 c 21.554,-24.797 43.109,-49.571 100.371,-115.473 m -100.371,115.473 c 38.789,-44.618 77.578,-89.239 100.371,-115.473 m -76.453,115.402 c 28.281,-32.535 56.562,-65.07 76.769,-88.312 m -76.769,88.312 c 18.293,-21.058 36.605,-42.097 76.769,-88.312 m -51.367,86.535 c 10.527,-12.105 21.035,-24.207 50.176,-57.734 m -50.176,57.734 c 17.187,-19.777 34.355,-39.531 50.176,-57.734 m -338.063,41.535 v 0 m 0,0 v 0 m 45.762,15.953 c -19.215,-16.719 -38.43,-33.414 -62.82,-54.629 m 62.82,54.629 c -21.035,-18.293 -42.074,-36.586 -62.82,-54.629 m 89.91,54.312 c -26.324,-22.859 -52.649,-45.742 -91.688,-79.695 m 91.688,79.695 c -22.699,-19.73 -45.403,-39.464 -91.688,-79.695 m 118.778,79.403 c -43.469,-37.778 -86.914,-75.555 -117.157,-101.856 m 117.157,101.856 c -34.965,-30.395 -69.93,-60.793 -117.157,-101.856 m 144.25,101.566 c -34.246,-29.769 -68.492,-59.535 -144.34,-125.484 m 144.34,125.484 c -42.39,-36.855 -84.804,-73.734 -144.34,-125.484 m 173.137,126.652 c -41.308,-35.91 -82.617,-71.82 -173.203,-150.57 m 173.203,150.57 c -60.953,-52.964 -121.883,-105.953 -173.203,-150.57 m 200.293,150.277 C 1650.848,835.102 1594.484,786.117 1506.824,709.91 m 200.383,174.195 c -64.305,-55.91 -128.609,-111.8 -200.383,-174.195 m 227.473,173.883 c -69.973,-60.82 -139.949,-121.66 -227.539,-197.801 m 227.539,197.801 c -90.652,-78.797 -181.305,-157.59 -227.539,-197.801 m 256.34,198.992 C 1666.707,801.195 1570.32,717.402 1506.664,662.078 m 256.434,222.906 C 1673.48,807.09 1583.863,729.172 1506.664,662.078 m 285.211,224.074 C 1695.262,802.16 1598.645,718.191 1509.996,641.105 m 281.879,245.047 C 1700.031,806.324 1608.188,726.492 1509.996,641.105 M 1815.57,882.891 C 1712.855,793.609 1610.164,704.332 1516.699,623.105 M 1815.57,882.891 C 1730.586,809.023 1645.602,735.156 1516.699,623.105 m 317.477,252.114 C 1750.273,802.297 1666.371,729.352 1528.512,609.516 m 305.664,265.703 C 1771.199,820.477 1708.223,765.734 1528.512,609.516 m 319.164,253.597 C 1764.785,791.047 1681.895,719 1543.723,598.895 m 303.953,264.218 c -95.649,-83.16 -191.293,-166.297 -303.953,-264.218 m 314.078,249.167 C 1741.34,746.832 1624.902,645.605 1565.727,594.148 m 292.074,253.914 C 1771.469,773.023 1685.16,697.984 1565.727,594.148 m 297.089,234.407 c -85.543,-74.34 -171.089,-148.703 -269.996,-234.7 m 269.996,234.7 c -84.824,-73.711 -169.625,-147.446 -269.996,-234.7 m 271.618,212.266 C 1772.258,726 1680.098,645.898 1619.91,593.562 m 244.528,212.559 C 1806.949,756.172 1749.484,706.199 1619.91,593.562 m 244.438,188.641 C 1800.156,726.402 1735.965,670.605 1647,593.25 m 217.348,188.953 C 1812.059,736.754 1759.77,691.281 1647,593.25 m 217.281,165.035 C 1819.73,719.562 1775.18,680.82 1675.777,594.441 m 188.504,163.844 c -47.07,-40.902 -94.117,-81.808 -188.504,-163.844 m 188.414,139.926 c -47.316,-41.129 -94.636,-82.258 -161.304,-140.242 m 161.304,140.242 c -54.269,-47.179 -108.539,-94.34 -161.304,-140.242 m 161.238,116.328 c -49.613,-43.133 -99.25,-86.265 -134.148,-116.621 m 134.148,116.621 C 1817.301,669.75 1770.477,629.07 1729.977,593.832 m 134.058,92.703 c -27.519,-23.918 -55.015,-47.836 -105.277,-91.531 m 105.277,91.531 c -34.562,-30.039 -69.121,-60.097 -105.277,-91.531 m 105.207,67.613 c -26.235,-22.816 -52.469,-45.609 -78.117,-67.906 m 78.117,67.906 c -25.535,-22.207 -51.074,-44.394 -78.117,-67.906 m 72.941,39.555 c -9.516,-8.282 -19.055,-16.559 -44.144,-38.383 m 44.144,38.383 c -10.035,-8.731 -20.066,-17.461 -44.144,-38.383" /></g><text
         id="text374"
         style="font-variant:normal;font-weight:bold;font-size:84.15917969px;font-family:Nunito;-inkscape-font-specification:Nunito-Bold;writing-mode:lr-tb;fill:#1e1e1e;fill-opacity:1;fill-rule:nonzero;stroke:none"
         transform="translate(1551.5742,767.79736)"><tspan
           id="tspan372"
           y="0"
           x="0 47.297459 94.594917 140.62999 203.4969">LLaDA</tspan></text>
<text
         id="text378"
         style="font-variant:normal;font-weight:bold;font-size:94.94628906px;font-family:Nunito;-inkscape-font-specification:Nunito-Bold;writing-mode:lr-tb;fill:#3bc9db;fill-opacity:1;fill-rule:nonzero;stroke:none"
         transform="translate(437.33203,388.69286)"><tspan
           id="tspan376"
           y="0"
           x="0 59.436378 94.661453 146.59708 181.34741">State</tspan></text>
<text
         id="text382"
         style="font-variant:normal;font-weight:bold;font-size:94.94628906px;font-family:Nunito;-inkscape-font-specification:Nunito-Bold;writing-mode:lr-tb;fill:#3bc9db;fill-opacity:1;fill-rule:nonzero;stroke:none"
         transform="translate(695.87078,388.69286)"><tspan
           id="tspan380"
           y="0"
           x="0 59.91111 116.87888 168.8145 212.67969">Space</tspan></text>
<text
         id="text386"
         style="font-variant:normal;font-weight:bold;font-size:94.94628906px;font-family:Nunito;-inkscape-font-specification:Nunito-Bold;writing-mode:lr-tb;fill:#3bc9db;fill-opacity:1;fill-rule:nonzero;stroke:none"
         transform="translate(985.7418,388.69286)"><tspan
           id="tspan384"
           y="0"
           x="0 82.413376 137.10245 194.07022 245.5311 275.34424">Models</tspan></text>
<g
         id="g388"><path
           id="path390"
           style="fill:none;stroke:#ffd43b;stroke-width:2.25;stroke-linecap:round;stroke-linejoin:miter;stroke-miterlimit:4;stroke-dasharray:none;stroke-opacity:1"
           d="m 1529.746,271.77 v 0 m 0,0 v 0 m -14.465,44.074 c 16.918,-19.461 33.84,-38.922 53.145,-61.129 m -53.145,61.129 c 17.707,-20.36 35.391,-40.723 53.145,-61.129 m -54.317,89.906 c 29.7,-34.152 59.403,-68.309 79.719,-91.687 m -79.719,91.687 c 21.286,-24.476 42.571,-48.957 79.719,-91.687 m -79.426,118.781 c 23.379,-26.867 46.735,-53.731 101.86,-117.16 m -101.86,117.16 c 26.594,-30.578 53.168,-61.156 101.86,-117.16 m -101.543,144.25 c 42.14,-48.465 84.285,-96.953 125.457,-144.34 m -125.457,144.34 c 47.293,-54.383 94.566,-108.789 125.457,-144.34 m -126.653,173.137 c 52.856,-60.793 105.707,-121.59 150.571,-173.204 m -150.571,173.204 c 49.817,-57.286 99.61,-114.571 150.571,-173.204 M 1513.84,454.691 c 63.316,-72.832 126.629,-145.664 174.172,-200.359 M 1513.84,454.691 c 65.117,-74.921 130.254,-149.824 174.172,-200.359 m -175.364,229.16 c 62.079,-71.414 124.153,-142.828 199.282,-229.25 m -199.282,229.25 c 74.586,-85.793 149.153,-171.586 199.282,-229.25 m -194.535,251.235 c 43.851,-50.446 87.707,-100.915 218.453,-251.305 m -218.453,251.305 c 65.003,-74.793 130.027,-149.582 218.453,-251.305 m -209.297,268.223 c 75.469,-86.829 150.91,-173.633 233.215,-268.313 m -233.215,268.313 c 67.367,-77.512 134.754,-155.024 233.215,-268.313 m -219.645,280.102 c 67.59,-77.735 135.18,-155.496 243.563,-280.168 m -243.563,280.168 c 86.086,-99 172.149,-198 243.563,-280.168 m -227.028,288.586 c 96.414,-110.883 192.805,-221.786 250.946,-288.676 m -250.946,288.676 c 59.715,-68.672 119.41,-137.34 250.946,-288.676 m -228.489,290.293 c 76.364,-87.84 152.707,-175.68 247.996,-285.278 m -247.996,285.278 c 77.399,-89.055 154.821,-178.086 247.996,-285.278 m -224.078,285.211 c 66.489,-76.5 132.996,-153 242.078,-278.48 m -242.078,278.48 c 60.5,-69.613 121.028,-139.23 242.078,-278.48 m -218.16,278.39 c 66.914,-76.972 133.852,-153.968 230.262,-264.89 m -230.262,264.89 c 71.504,-82.238 143.008,-164.496 230.262,-264.89 m -206.348,264.824 c 77.785,-89.484 155.567,-178.965 215.508,-247.93 m -215.508,247.93 c 47.321,-54.43 94.614,-108.855 215.508,-247.93 m -191.59,247.864 c 60.121,-69.188 120.242,-138.356 194.852,-224.168 M 1674.781,543.93 c 48.828,-56.207 97.676,-112.391 194.852,-224.168 M 1698.699,543.84 c 67.297,-77.426 134.598,-154.848 171.227,-196.988 M 1698.699,543.84 c 52.492,-60.391 104.985,-120.781 171.227,-196.988 m -148.793,198.605 c 49.074,-56.43 98.144,-112.883 149.086,-171.492 m -149.086,171.492 c 29.879,-34.355 59.762,-68.738 149.086,-171.492 m -125.168,171.426 c 37.89,-43.582 75.781,-87.164 123.996,-142.649 m -123.996,142.649 c 41.758,-48.039 83.519,-96.075 123.996,-142.649 m -100.078,142.559 c 20.472,-23.535 40.926,-47.094 100.371,-115.469 m -100.371,115.469 c 39.465,-45.406 78.929,-90.789 100.371,-115.469 m -76.453,115.402 c 16.672,-19.195 33.367,-38.386 76.769,-88.312 m -76.769,88.312 c 15.457,-17.777 30.914,-35.55 76.769,-88.312 m -51.367,86.535 c 13.5,-15.551 27,-31.074 50.172,-57.738 m -50.172,57.738 c 11.449,-13.164 22.883,-26.348 50.172,-57.738 m -338.063,41.535 v 0 m 0,0 v 0 m 45.766,15.953 c -21.687,-18.855 -43.355,-37.687 -62.82,-54.629 m 62.82,54.629 c -16.941,-14.738 -33.906,-29.473 -62.82,-54.629 m 89.91,54.317 c -21.645,-18.813 -43.289,-37.622 -91.688,-79.696 m 91.688,79.696 c -29.945,-26.036 -59.918,-52.067 -91.688,-79.696 m 118.778,79.403 c -39.442,-34.293 -78.906,-68.582 -117.156,-101.86 m 117.156,101.86 c -29.137,-25.336 -58.274,-50.649 -117.156,-101.86 m 144.246,101.567 c -43.696,-38.004 -87.411,-76.004 -144.336,-125.485 m 144.336,125.485 c -43.039,-37.418 -86.063,-74.836 -144.336,-125.485 m 173.136,126.653 c -40.386,-35.122 -80.796,-70.223 -173.203,-150.571 m 173.203,150.571 c -45.132,-39.239 -90.269,-78.481 -173.203,-150.571 m 200.293,150.278 C 1655.59,492.988 1597.855,442.789 1512.941,368.992 m 200.383,174.192 C 1648.145,486.508 1582.938,429.852 1512.941,368.992 m 227.473,173.879 C 1670.281,481.918 1600.172,420.965 1512.871,345.074 m 227.543,197.797 C 1656.871,470.242 1573.309,397.609 1512.871,345.074 m 256.344,198.988 C 1709.5,492.156 1649.785,440.246 1512.781,321.156 m 256.434,222.906 C 1710.852,493.348 1652.508,442.609 1512.781,321.156 m 285.211,224.078 c -90.066,-78.3 -180.156,-156.601 -281.879,-245.05 m 281.879,245.05 C 1686.461,448.281 1574.949,351.328 1516.113,300.184 m 305.571,241.785 C 1713.461,447.898 1605.258,353.824 1522.816,282.184 m 298.868,259.785 C 1735.082,466.684 1648.457,391.402 1522.816,282.184 m 317.477,252.113 C 1745.637,452.016 1650.977,369.734 1534.629,268.594 m 305.664,265.703 c -103.547,-90 -207.09,-180.02 -305.664,-265.703 m 319.164,253.597 C 1767.055,446.773 1680.297,371.375 1549.84,257.977 m 303.953,264.214 C 1773.918,452.758 1694.043,383.324 1549.84,257.977 m 314.078,249.164 c -59.961,-52.11 -119.902,-104.219 -292.074,-253.914 m 292.074,253.914 C 1760.215,416.984 1656.535,326.848 1571.844,253.227 m 297.09,234.406 c -107.098,-93.082 -214.2,-186.188 -270,-234.699 m 270,234.699 c -97.942,-85.117 -195.86,-170.258 -270,-234.699 m 271.621,212.265 C 1817.41,419.008 1764.242,372.793 1626.023,252.645 m 244.532,212.554 c -90.114,-78.32 -180.203,-156.644 -244.532,-212.554 m 244.442,188.636 c -59.578,-51.793 -119.16,-103.59 -217.352,-188.953 m 217.352,188.953 C 1811.469,389.984 1752.453,338.684 1653.113,252.328 m 217.285,165.039 c -45.519,-39.558 -91.035,-79.133 -188.503,-163.847 m 188.503,163.847 c -50.671,-44.058 -101.339,-88.09 -188.503,-163.847 m 188.414,139.929 c -45.227,-39.332 -90.473,-78.66 -161.305,-140.242 m 161.305,140.242 c -54.293,-47.207 -108.586,-94.41 -161.305,-140.242 m 161.234,116.324 c -34.535,-30.015 -69.05,-60.031 -134.144,-116.617 m 134.144,116.617 c -41.781,-36.316 -83.539,-72.629 -134.144,-116.617 m 134.054,92.699 c -38.179,-33.187 -76.339,-66.375 -105.277,-91.531 m 105.277,91.531 c -39.082,-33.976 -78.164,-67.949 -105.277,-91.531 m 105.211,67.613 c -25.719,-22.363 -51.457,-44.73 -78.121,-67.906 m 78.121,67.906 c -24.773,-21.531 -49.543,-43.066 -78.121,-67.906 m 72.945,39.555 c -11.136,-9.672 -22.25,-19.348 -44.144,-38.383 m 44.144,38.383 c -11.203,-9.742 -22.429,-19.504 -44.144,-38.383" /></g><text
         id="text394"
         style="font-variant:normal;font-weight:bold;font-size:76.54589844px;font-family:Nunito;-inkscape-font-specification:Nunito-Bold;writing-mode:lr-tb;fill:#1e1e1e;fill-opacity:1;fill-rule:nonzero;stroke:none"
         transform="translate(1525.7891,424.37377)"><tspan
           id="tspan392"
           y="0"
           x="0 66.441841 108.31245 175.44319 221.37074">Mamba</tspan></text>
<text
         id="text398"
         style="font-variant:normal;font-weight:bold;font-size:76.54589844px;font-family:Nunito;-inkscape-font-specification:Nunito-Bold;writing-mode:lr-tb;fill:#1e1e1e;fill-opacity:1;fill-rule:nonzero;stroke:none"
         transform="translate(1809.7743,424.37377)"><tspan
           id="tspan396"
           y="0"
           x="0">2</tspan></text>
<text
         id="text402"
         style="font-variant:normal;font-weight:bold;font-size:82.12890625px;font-family:Nunito;-inkscape-font-specification:Nunito-Bold;writing-mode:lr-tb;fill:#e03131;fill-opacity:1;fill-rule:nonzero;stroke:none"
         transform="translate(2745.0742,345.1123)"><tspan
           id="tspan400"
           y="0"
           x="0 23.160351 71.205765 98.390427 142.9043 174.4418 218.95566 267.00107 304.94464">Inference</tspan></text>
<text
         id="text406"
         style="font-variant:normal;font-weight:bold;font-size:82.12890625px;font-family:Nunito;-inkscape-font-specification:Nunito-Bold;writing-mode:lr-tb;fill:#e03131;fill-opacity:1;fill-rule:nonzero;stroke:none"
         transform="translate(3116.7896,345.1123)"><tspan
           id="tspan404"
           y="0"
           x="0 47.306252 96.172951 127.71045 148.65332 220.68037 241.62325 281.70215 326.62665 358.16415 379.10703 426.41327">optimisation</tspan></text>
<text
         id="text410"
         style="font-variant:normal;font-weight:bold;font-size:79.81347656px;font-family:Nunito;-inkscape-font-specification:Nunito-Bold;writing-mode:lr-tb;fill:#1e1e1e;fill-opacity:1;fill-rule:nonzero;stroke:none"
         transform="translate(2749.4648,477.62988)"><tspan
           id="tspan408"
           y="0"
           x="0">-</tspan></text>
<text
         id="text416"
         style="font-variant:normal;font-weight:bold;font-size:79.81347656px;font-family:Nunito;-inkscape-font-specification:Nunito-Bold;writing-mode:lr-tb;fill:#1e1e1e;fill-opacity:1;fill-rule:nonzero;stroke:none"
         transform="translate(2805.7333,477.62988)"><tspan
           id="tspan412"
           y="0"
           x="0 62.65358 108.86559 152.52356 199.21443 229.86281 250.21526 289.16422 332.8222 363.47058 383.823 429.79556">Quantisation</tspan><tspan
           id="tspan414"
           y="107.74612"
           x="-56.268501">-</tspan></text>
<text
         id="text420"
         style="font-variant:normal;font-weight:bold;font-size:79.81347656px;font-family:Nunito;-inkscape-font-specification:Nunito-Bold;writing-mode:lr-tb;fill:#1e1e1e;fill-opacity:1;fill-rule:nonzero;stroke:none"
         transform="translate(2805.7333,585.376)"><tspan
           id="tspan418"
           y="0"
           x="0 51.479694">KV</tspan></text>
<text
         id="text424"
         style="font-variant:normal;font-weight:bold;font-size:79.81347656px;font-family:Nunito;-inkscape-font-specification:Nunito-Bold;writing-mode:lr-tb;fill:#1e1e1e;fill-opacity:1;fill-rule:nonzero;stroke:none"
         transform="translate(2935.7495,585.376)"><tspan
           id="tspan422"
           y="0"
           x="0 52.836521 96.494492 134.16646 180.85735">Cache</tspan></text>
<text
         id="text430"
         style="font-variant:normal;font-weight:bold;font-size:79.81347656px;font-family:Nunito;-inkscape-font-specification:Nunito-Bold;writing-mode:lr-tb;fill:#1e1e1e;fill-opacity:1;fill-rule:nonzero;stroke:none"
         transform="translate(3181.4952,585.376)"><tspan
           id="tspan426"
           y="0"
           x="0 51.479694 97.452255 167.44867 215.33676 245.98514 289.24405 328.19302 367.142 387.49445 433.46698">Compression</tspan><tspan
           id="tspan428"
           y="107.75003"
           x="-432.03036">-</tspan></text>
<text
         id="text434"
         style="font-variant:normal;font-weight:bold;font-size:79.81347656px;font-family:Nunito;-inkscape-font-specification:Nunito-Bold;writing-mode:lr-tb;fill:#1e1e1e;fill-opacity:1;fill-rule:nonzero;stroke:none"
         transform="translate(2805.7333,693.12603)"><tspan
           id="tspan432"
           y="0"
           x="0 69.278099 118.28357">MTP</tspan></text>
<text
         id="text438"
         style="font-variant:normal;font-weight:bold;font-size:79.81347656px;font-family:Nunito;-inkscape-font-specification:Nunito-Bold;writing-mode:lr-tb;fill:#1e1e1e;fill-opacity:1;fill-rule:nonzero;stroke:none"
         transform="translate(2997.6848,693.12603)"><tspan
           id="tspan436"
           y="0"
           x="0 28.573225">(+</tspan></text>
<text
         id="text442"
         style="font-variant:normal;font-weight:bold;font-size:79.81347656px;font-family:Nunito;-inkscape-font-specification:Nunito-Bold;writing-mode:lr-tb;fill:#1e1e1e;fill-opacity:1;fill-rule:nonzero;stroke:none"
         transform="translate(3095.7755,693.12603)"><tspan
           id="tspan440"
           y="0"
           x="0 38.948978 86.837067 130.09596 167.76793 213.97993 239.44043 283.09839 313.74677 334.09921 375.36279">speculative</tspan></text>
<text
         id="text446"
         style="font-variant:normal;font-weight:bold;font-size:79.81347656px;font-family:Nunito;-inkscape-font-specification:Nunito-Bold;writing-mode:lr-tb;fill:#1e1e1e;fill-opacity:1;fill-rule:nonzero;stroke:none"
         transform="translate(3536.0267,693.12603)"><tspan
           id="tspan444"
           y="0"
           x="0 47.888084 91.146988 128.02081 173.99338 221.88147 242.2339 288.92477 337.13214">decoding)</tspan></text>
<text
         id="text450"
         style="font-variant:normal;font-weight:bold;font-size:77.5390625px;font-family:Nunito;-inkscape-font-specification:Nunito-Bold;writing-mode:lr-tb;fill:#1e1e1e;fill-opacity:1;fill-rule:nonzero;stroke:none"
         transform="translate(2293.0898,1099.585)"><tspan
           id="tspan448"
           y="0"
           x="0 50.012695 94.675194 132.51425 200.51602 245.17851">Cosmos</tspan></text>
</g></g></svg>